<?xml version="1.0" encoding="UTF-8"?>
<svg id="pitching" xmlns="http://www.w3.org/2000/svg" xmlns:xlink="http://www.w3.org/1999/xlink" version="1.1" viewBox="0 0 400 400">
  <!-- Generator: Adobe Illustrator 30.3.0, SVG Export Plug-In . SVG Version: 2.1.3 Build 182)  -->
  <defs>
    <style>
      .st0, .st1 {
        fill: #262626;
      }

      .st1, .st2 {
        opacity: .06;
      }

      .st3 {
        fill: #adadad;
      }

      .st4 {
        fill: url(#_ÂÁ_Ï_ÌÌ_È_ËÂÌÚ_122);
      }

      .st5 {
        fill: url(#_ÂÁ_Ï_ÌÌ_È_ËÂÌÚ_123);
      }

      .st6 {
        fill: url(#_ÂÁ_Ï_ÌÌ_È_ËÂÌÚ_121);
      }

      .st7 {
        fill: url(#_ÂÁ_Ï_ÌÌ_È_ËÂÌÚ_141);
      }

      .st8 {
        fill: url(#_ÂÁ_Ï_ÌÌ_È_ËÂÌÚ_142);
      }

      .st9 {
        fill: url(#_ÂÁ_Ï_ÌÌ_È_ËÂÌÚ_111);
      }

      .st10 {
        fill: url(#_ÂÁ_Ï_ÌÌ_È_ËÂÌÚ_131);
      }

      .st11 {
        fill: url(#_ÂÁ_Ï_ÌÌ_È_ËÂÌÚ_132);
      }

      .st12 {
        fill: url(#_ÂÁ_Ï_ÌÌ_È_ËÂÌÚ_171);
      }

      .st13 {
        fill: #0a0a0a;
      }

      .st14 {
        fill: #b6b6b6;
      }

      .st15 {
        fill: #767676;
      }

      .st16 {
        fill: #363636;
      }

      .st17 {
        fill: #909090;
      }

      .st18 {
        fill: #e4e4e4;
      }

      .st19 {
        fill: #d9d9d9;
      }

      .st20 {
        fill: #b5b5b5;
      }

      .st21 {
        stroke: #e9e9e9;
      }

      .st21, .st22 {
        stroke-miterlimit: 10;
      }

      .st21, .st23 {
        fill: #fff;
      }

      .st24 {
        fill: #2c2c2c;
      }

      .st25 {
        fill: #8a8a8a;
      }

      .st26 {
        fill: url(#_ÂÁ_Ï_ÌÌ_È_ËÂÌÚ_7);
      }

      .st27 {
        fill: url(#_ÂÁ_Ï_ÌÌ_È_ËÂÌÚ_6);
      }

      .st28 {
        fill: url(#_ÂÁ_Ï_ÌÌ_È_ËÂÌÚ_9);
      }

      .st29 {
        fill: url(#_ÂÁ_Ï_ÌÌ_È_ËÂÌÚ_8);
      }

      .st30 {
        fill: url(#_ÂÁ_Ï_ÌÌ_È_ËÂÌÚ_2);
      }

      .st31 {
        fill: url(#_ÂÁ_Ï_ÌÌ_È_ËÂÌÚ_5);
      }

      .st32 {
        fill: url(#_ÂÁ_Ï_ÌÌ_È_ËÂÌÚ_4);
      }

      .st33 {
        fill: #1e1e1e;
      }

      .st34 {
        fill: #3e3e3e;
      }

      .st35 {
        fill: #5c5c5c;
      }

      .st36 {
        fill: #929292;
      }

      .st37 {
        fill: #3a3a3a;
      }

      .st38 {
        fill: #525252;
      }

      .st39 {
        fill: #c4c4c4;
      }

      .st40 {
        fill: #9b9b9b;
      }

      .st41 {
        fill: #373737;
      }

      .st42 {
        fill: #bababa;
      }

      .st43 {
        fill: #656565;
      }

      .st44 {
        fill: #636363;
      }

      .st45 {
        fill: #d4d4d4;
      }

      .st46 {
        fill: #e7e7e7;
      }

      .st47 {
        fill: #b0b0b0;
      }

      .st48 {
        fill: #b7b7b7;
      }

      .st22 {
        fill: #ededed;
        stroke: #fff;
      }

      .st49 {
        fill: #6f6f6f;
      }

      .st50 {
        fill: #868686;
      }

      .st51 {
        fill: #cacaca;
      }

      .st52 {
        fill: #d7d7d7;
      }

      .st53 {
        fill: #bcbcbc;
      }

      .st54 {
        fill: #7e7e7e;
      }

      .st55 {
        fill: #b8b8b8;
      }

      .st56 {
        fill: #848484;
      }

      .st57 {
        opacity: .48;
      }

      .st58 {
        fill: #e1e1e1;
      }

      .st59 {
        fill: #c5c5c5;
      }

      .st60 {
        fill: #f7f7f7;
      }

      .st61 {
        fill: #1f1f1f;
      }

      .st62 {
        fill: #f0f0f0;
      }

      .st63 {
        fill: #dbdbdb;
      }

      .st64 {
        fill: #949494;
      }

      .st65 {
        fill: #191919;
      }

      .st66 {
        fill: #313131;
      }

      .st67 {
        fill: #333;
      }

      .st68 {
        fill: #9c9c9c;
      }

      .st69 {
        fill: #d3d3d3;
      }

      .st70 {
        fill: url(#_ÂÁ_Ï_ÌÌ_È_ËÂÌÚ_63);
      }

      .st71 {
        fill: url(#_ÂÁ_Ï_ÌÌ_È_ËÂÌÚ_62);
      }

      .st72 {
        fill: url(#_ÂÁ_Ï_ÌÌ_È_ËÂÌÚ_61);
      }

      .st73 {
        fill: url(#_ÂÁ_Ï_ÌÌ_È_ËÂÌÚ_64);
      }

      .st74 {
        fill: url(#_ÂÁ_Ï_ÌÌ_È_ËÂÌÚ_16);
      }

      .st75 {
        fill: url(#_ÂÁ_Ï_ÌÌ_È_ËÂÌÚ_12);
      }

      .st76 {
        fill: url(#_ÂÁ_Ï_ÌÌ_È_ËÂÌÚ_14);
      }

      .st77 {
        fill: url(#_ÂÁ_Ï_ÌÌ_È_ËÂÌÚ_13);
      }

      .st78 {
        fill: url(#_ÂÁ_Ï_ÌÌ_È_ËÂÌÚ_11);
      }

      .st79 {
        fill: url(#_ÂÁ_Ï_ÌÌ_È_ËÂÌÚ_10);
      }

      .st80 {
        fill: url(#_ÂÁ_Ï_ÌÌ_È_ËÂÌÚ_15);
      }

      .st81 {
        fill: url(#_ÂÁ_Ï_ÌÌ_È_ËÂÌÚ_17);
      }

      .st82 {
        fill: url(#_ÂÁ_Ï_ÌÌ_È_ËÂÌÚ_44);
      }

      .st83 {
        fill: url(#_ÂÁ_Ï_ÌÌ_È_ËÂÌÚ_45);
      }

      .st84 {
        fill: url(#_ÂÁ_Ï_ÌÌ_È_ËÂÌÚ_41);
      }

      .st85 {
        fill: url(#_ÂÁ_Ï_ÌÌ_È_ËÂÌÚ_42);
      }

      .st86 {
        fill: url(#_ÂÁ_Ï_ÌÌ_È_ËÂÌÚ_43);
      }

      .st87 {
        fill: #999;
      }

      .st88 {
        fill: #e8e8e8;
      }

      .st89 {
        fill: #090909;
      }
    </style>
    <linearGradient id="_ÂÁ_Ï_ÌÌ_È_ËÂÌÚ_17" data-name="¡ÂÁ˚ÏˇÌÌ˚È „‡‰ËÂÌÚ 17" x1="-41.82" y1="321.25" x2="-44.3" y2="327.14" gradientTransform="translate(61.22) rotate(-180) scale(1 -1)" gradientUnits="userSpaceOnUse">
      <stop offset="0" stop-color="#9c9c9c"/>
      <stop offset="1" stop-color="#949494"/>
    </linearGradient>
    <linearGradient id="_ÂÁ_Ï_ÌÌ_È_ËÂÌÚ_171" data-name="¡ÂÁ˚ÏˇÌÌ˚È „‡‰ËÂÌÚ 17" x1="-63.21" y1="332.03" x2="-63.97" y2="341.07" xlink:href="#_ÂÁ_Ï_ÌÌ_È_ËÂÌÚ_17"/>
    <linearGradient id="_ÂÁ_Ï_ÌÌ_È_ËÂÌÚ_4" data-name="¡ÂÁ˚ÏˇÌÌ˚È „‡‰ËÂÌÚ 4" x1="-39.27" y1="293.66" x2="-49.92" y2="296.52" gradientTransform="translate(61.22) rotate(-180) scale(1 -1)" gradientUnits="userSpaceOnUse">
      <stop offset="0" stop-color="#191919"/>
      <stop offset=".81" stop-color="#333"/>
    </linearGradient>
    <linearGradient id="_ÂÁ_Ï_ÌÌ_È_ËÂÌÚ_14" data-name="¡ÂÁ˚ÏˇÌÌ˚È „‡‰ËÂÌÚ 14" x1="-63.96" y1="292.37" x2="-54.36" y2="292.37" gradientTransform="translate(61.22) rotate(-180) scale(1 -1)" gradientUnits="userSpaceOnUse">
      <stop offset="0" stop-color="#5b5b5b"/>
      <stop offset="1" stop-color="#333"/>
    </linearGradient>
    <linearGradient id="_ÂÁ_Ï_ÌÌ_È_ËÂÌÚ_12" data-name="¡ÂÁ˚ÏˇÌÌ˚È „‡‰ËÂÌÚ 12" x1="-3468.51" y1="-429.49" x2="-3469.48" y2="-430.33" gradientTransform="translate(-3344.57 622.1) rotate(166.37)" gradientUnits="userSpaceOnUse">
      <stop offset="0" stop-color="#cacaca"/>
      <stop offset="1" stop-color="#bbb"/>
    </linearGradient>
    <linearGradient id="_ÂÁ_Ï_ÌÌ_È_ËÂÌÚ_121" data-name="¡ÂÁ˚ÏˇÌÌ˚È „‡‰ËÂÌÚ 12" x1="-3470.99" y1="-428.35" x2="-3471.29" y2="-429.24" xlink:href="#_ÂÁ_Ï_ÌÌ_È_ËÂÌÚ_12"/>
    <linearGradient id="_ÂÁ_Ï_ÌÌ_È_ËÂÌÚ_13" data-name="¡ÂÁ˚ÏˇÌÌ˚È „‡‰ËÂÌÚ 13" x1="-61.59" y1="218.45" x2="-53.06" y2="222.21" gradientTransform="translate(61.22) rotate(-180) scale(1 -1)" gradientUnits="userSpaceOnUse">
      <stop offset="0" stop-color="#adadad"/>
      <stop offset="1" stop-color="#949494"/>
    </linearGradient>
    <linearGradient id="_ÂÁ_Ï_ÌÌ_È_ËÂÌÚ_141" data-name="¡ÂÁ˚ÏˇÌÌ˚È „‡‰ËÂÌÚ 14" x1="-66.83" y1="225.66" x2="-64.12" y2="225.66" xlink:href="#_ÂÁ_Ï_ÌÌ_È_ËÂÌÚ_14"/>
    <linearGradient id="_ÂÁ_Ï_ÌÌ_È_ËÂÌÚ_16" data-name="¡ÂÁ˚ÏˇÌÌ˚È „‡‰ËÂÌÚ 16" x1="-56.38" y1="241.42" x2="-34.16" y2="235.81" gradientTransform="translate(61.22) rotate(-180) scale(1 -1)" gradientUnits="userSpaceOnUse">
      <stop offset="0" stop-color="#bbb"/>
      <stop offset="1" stop-color="#cbcbcb"/>
    </linearGradient>
    <linearGradient id="_ÂÁ_Ï_ÌÌ_È_ËÂÌÚ_15" data-name="¡ÂÁ˚ÏˇÌÌ˚È „‡‰ËÂÌÚ 15" x1="-53.93" y1="245.69" x2="-59.83" y2="245.69" gradientTransform="translate(61.22) rotate(-180) scale(1 -1)" gradientUnits="userSpaceOnUse">
      <stop offset="0" stop-color="#bbb"/>
      <stop offset="1" stop-color="#a9a9a9"/>
    </linearGradient>
    <linearGradient id="_ÂÁ_Ï_ÌÌ_È_ËÂÌÚ_122" data-name="¡ÂÁ˚ÏˇÌÌ˚È „‡‰ËÂÌÚ 12" x1="-3533.9" y1="220.47" x2="-3539.17" y2="216.03" gradientTransform="translate(-3424.03) rotate(-180) scale(1 -1)" xlink:href="#_ÂÁ_Ï_ÌÌ_È_ËÂÌÚ_12"/>
    <linearGradient id="_ÂÁ_Ï_ÌÌ_È_ËÂÌÚ_41" data-name="¡ÂÁ˚ÏˇÌÌ˚È „‡‰ËÂÌÚ 4" x1="-50.02" y1="208.11" x2="-46.67" y2="200.28" xlink:href="#_ÂÁ_Ï_ÌÌ_È_ËÂÌÚ_4"/>
    <linearGradient id="_ÂÁ_Ï_ÌÌ_È_ËÂÌÚ_142" data-name="¡ÂÁ˚ÏˇÌÌ˚È „‡‰ËÂÌÚ 14" x1="-77.84" y1="232.89" x2="-74.23" y2="232.89" xlink:href="#_ÂÁ_Ï_ÌÌ_È_ËÂÌÚ_14"/>
    <linearGradient id="_ÂÁ_Ï_ÌÌ_È_ËÂÌÚ_131" data-name="¡ÂÁ˚ÏˇÌÌ˚È „‡‰ËÂÌÚ 13" x1="-71.18" y1="244.2" x2="-65.24" y2="244.07" xlink:href="#_ÂÁ_Ï_ÌÌ_È_ËÂÌÚ_13"/>
    <linearGradient id="_ÂÁ_Ï_ÌÌ_È_ËÂÌÚ_132" data-name="¡ÂÁ˚ÏˇÌÌ˚È „‡‰ËÂÌÚ 13" x1="-77.56" y1="220.2" x2="-64.74" y2="220.2" xlink:href="#_ÂÁ_Ï_ÌÌ_È_ËÂÌÚ_13"/>
    <linearGradient id="_ÂÁ_Ï_ÌÌ_È_ËÂÌÚ_123" data-name="¡ÂÁ˚ÏˇÌÌ˚È „‡‰ËÂÌÚ 12" x1="-3560.73" y1="225.46" x2="-3563.02" y2="227.71" gradientTransform="translate(-3424.03) rotate(-180) scale(1 -1)" xlink:href="#_ÂÁ_Ï_ÌÌ_È_ËÂÌÚ_12"/>
    <linearGradient id="_ÂÁ_Ï_ÌÌ_È_ËÂÌÚ_42" data-name="¡ÂÁ˚ÏˇÌÌ˚È „‡‰ËÂÌÚ 4" x1="-40.22" y1="198.62" x2="-46.79" y2="196.34" xlink:href="#_ÂÁ_Ï_ÌÌ_È_ËÂÌÚ_4"/>
    <linearGradient id="_ÂÁ_Ï_ÌÌ_È_ËÂÌÚ_11" data-name="¡ÂÁ˚ÏˇÌÌ˚È „‡‰ËÂÌÚ 11" x1="-71.65" y1="304.95" x2="-74.1" y2="309.29" gradientTransform="translate(202.37) rotate(-180) scale(1 -1)" gradientUnits="userSpaceOnUse">
      <stop offset="0" stop-color="#e1e1e1"/>
      <stop offset="1" stop-color="#acacac"/>
    </linearGradient>
    <linearGradient id="_ÂÁ_Ï_ÌÌ_È_ËÂÌÚ_111" data-name="¡ÂÁ˚ÏˇÌÌ˚È „‡‰ËÂÌÚ 11" x1="-86.49" y1="314.29" x2="-88.7" y2="315.9" xlink:href="#_ÂÁ_Ï_ÌÌ_È_ËÂÌÚ_11"/>
    <linearGradient id="_ÂÁ_Ï_ÌÌ_È_ËÂÌÚ_6" data-name="¡ÂÁ˚ÏˇÌÌ˚È „‡‰ËÂÌÚ 6" x1="-89.36" y1="308.15" x2="-86.04" y2="308.15" gradientTransform="translate(202.37) rotate(-180) scale(1 -1)" gradientUnits="userSpaceOnUse">
      <stop offset="0" stop-color="#cacaca"/>
      <stop offset=".4" stop-color="#c4c4c4"/>
      <stop offset=".9" stop-color="#b5b5b5"/>
      <stop offset="1" stop-color="#b1b1b1"/>
    </linearGradient>
    <linearGradient id="_ÂÁ_Ï_ÌÌ_È_ËÂÌÚ_61" data-name="¡ÂÁ˚ÏˇÌÌ˚È „‡‰ËÂÌÚ 6" x1="-77.38" y1="300.04" x2="-74.06" y2="300.04" xlink:href="#_ÂÁ_Ï_ÌÌ_È_ËÂÌÚ_6"/>
    <linearGradient id="_ÂÁ_Ï_ÌÌ_È_ËÂÌÚ_10" data-name="¡ÂÁ˚ÏˇÌÌ˚È „‡‰ËÂÌÚ 10" x1="-71.84" y1="279.69" x2="-83.2" y2="279.69" gradientTransform="translate(202.37) rotate(-180) scale(1 -1)" gradientUnits="userSpaceOnUse">
      <stop offset="0" stop-color="#525252"/>
      <stop offset="1" stop-color="#3d3d3d"/>
    </linearGradient>
    <linearGradient id="_ÂÁ_Ï_ÌÌ_È_ËÂÌÚ_9" data-name="¡ÂÁ˚ÏˇÌÌ˚È „‡‰ËÂÌÚ 9" x1="-65.99" y1="239.65" x2="-74.4" y2="233.25" gradientTransform="translate(202.37) rotate(-180) scale(1 -1)" gradientUnits="userSpaceOnUse">
      <stop offset="0" stop-color="#f0f0f0"/>
      <stop offset="1" stop-color="#e8e8e8"/>
    </linearGradient>
    <linearGradient id="_ÂÁ_Ï_ÌÌ_È_ËÂÌÚ_43" data-name="¡ÂÁ˚ÏˇÌÌ˚È „‡‰ËÂÌÚ 4" x1="-81.82" y1="221.09" x2="-85.02" y2="243.61" gradientTransform="translate(202.37) rotate(-180) scale(1 -1)" xlink:href="#_ÂÁ_Ï_ÌÌ_È_ËÂÌÚ_4"/>
    <linearGradient id="_ÂÁ_Ï_ÌÌ_È_ËÂÌÚ_8" data-name="¡ÂÁ˚ÏˇÌÌ˚È „‡‰ËÂÌÚ 8" x1="-85.25" y1="280.92" x2="-93.63" y2="280.92" gradientTransform="translate(202.37) rotate(-180) scale(1 -1)" gradientUnits="userSpaceOnUse">
      <stop offset="0" stop-color="#7e7e7e"/>
      <stop offset="1" stop-color="#b2b2b2"/>
    </linearGradient>
    <linearGradient id="_ÂÁ_Ï_ÌÌ_È_ËÂÌÚ_7" data-name="¡ÂÁ˚ÏˇÌÌ˚È „‡‰ËÂÌÚ 7" x1="-78.27" y1="237.74" x2="-93.19" y2="249.57" gradientTransform="translate(202.37) rotate(-180) scale(1 -1)" gradientUnits="userSpaceOnUse">
      <stop offset="0" stop-color="#e1e1e1"/>
      <stop offset="1" stop-color="#b5b5b5"/>
    </linearGradient>
    <linearGradient id="_ÂÁ_Ï_ÌÌ_È_ËÂÌÚ_62" data-name="¡ÂÁ˚ÏˇÌÌ˚È „‡‰ËÂÌÚ 6" x1="-53.24" y1="235.06" x2="-55.12" y2="238.59" xlink:href="#_ÂÁ_Ï_ÌÌ_È_ËÂÌÚ_6"/>
    <linearGradient id="_ÂÁ_Ï_ÌÌ_È_ËÂÌÚ_63" data-name="¡ÂÁ˚ÏˇÌÌ˚È „‡‰ËÂÌÚ 6" x1="-71.16" y1="243.97" x2="-70.95" y2="241.29" xlink:href="#_ÂÁ_Ï_ÌÌ_È_ËÂÌÚ_6"/>
    <linearGradient id="_ÂÁ_Ï_ÌÌ_È_ËÂÌÚ_64" data-name="¡ÂÁ˚ÏˇÌÌ˚È „‡‰ËÂÌÚ 6" x1="-83.82" y1="226.51" x2="-77.64" y2="226.51" xlink:href="#_ÂÁ_Ï_ÌÌ_È_ËÂÌÚ_6"/>
    <linearGradient id="_ÂÁ_Ï_ÌÌ_È_ËÂÌÚ_44" data-name="¡ÂÁ˚ÏˇÌÌ˚È „‡‰ËÂÌÚ 4" x1="-82.74" y1="220.95" x2="-85.92" y2="243.43" gradientTransform="translate(202.37) rotate(-180) scale(1 -1)" xlink:href="#_ÂÁ_Ï_ÌÌ_È_ËÂÌÚ_4"/>
    <linearGradient id="_ÂÁ_Ï_ÌÌ_È_ËÂÌÚ_5" data-name="¡ÂÁ˚ÏˇÌÌ˚È „‡‰ËÂÌÚ 5" x1="-78.51" y1="223.72" x2="-71.08" y2="228.08" gradientTransform="translate(202.37) rotate(-180) scale(1 -1)" gradientUnits="userSpaceOnUse">
      <stop offset="0" stop-color="#cacaca"/>
      <stop offset=".37" stop-color="#c4c4c4"/>
      <stop offset=".44" stop-color="#c3c3c3"/>
      <stop offset=".9" stop-color="#b4b4b4"/>
      <stop offset="1" stop-color="#b1b1b1"/>
    </linearGradient>
    <linearGradient id="_ÂÁ_Ï_ÌÌ_È_ËÂÌÚ_45" data-name="¡ÂÁ˚ÏˇÌÌ˚È „‡‰ËÂÌÚ 4" x1="-85.57" y1="225.44" x2="-72.5" y2="216.32" gradientTransform="translate(202.37) rotate(-180) scale(1 -1)" xlink:href="#_ÂÁ_Ï_ÌÌ_È_ËÂÌÚ_4"/>
    <linearGradient id="_ÂÁ_Ï_ÌÌ_È_ËÂÌÚ_2" data-name="¡ÂÁ˚ÏˇÌÌ˚È „‡‰ËÂÌÚ 2" x1="-82.72" y1="238.96" x2="-90.56" y2="252.34" gradientTransform="translate(202.37) rotate(-180) scale(1 -1)" gradientUnits="userSpaceOnUse">
      <stop offset="0" stop-color="#f0f0f0"/>
      <stop offset="1" stop-color="#f5f5f5"/>
    </linearGradient>
  </defs>
  <g id="bg">
    <path class="st22" d="M95.43,93.66c-59.43,51.29,45.66,87.5-4.03,104.33-51.06,17.29-26.77,98.26,64.53,80.51,62.36-12.12,55.08,52.21,108.38,26.82,50.63-24.12,83.2-193.51,24.41-190.39-122.73,6.52-100.44-101.39-193.29-21.27Z"/>
  </g>
  <g>
    <path class="st41" d="M175.36,245.03l5.83,1.99s11.35-5.83,16.41-4.91c5.06.92,15.8,3.68,17.64,7.06,1.84,3.37,4.45,12.27,0,11.96-4.45-.31-6.44-7.36-6.44-8.28s-10.28.77-10.28.77c0,0-13.04,4.91-22.24,14.26,0,0-6.59-2.15-7.36-4.91l6.44-17.95Z"/>
    <path class="st41" d="M219.33,278.03c.81,1.65,2.71,2.38,4.25,1.63h0c1.54-.75,2.12-2.7,1.31-4.36l-.98-2c-.81-1.65-2.71-2.38-4.25-1.63h0c-1.53.75-2.12,2.7-1.31,4.36l.98,2Z"/>
    <path class="st41" d="M213.48,282.15c.92,1.88,3,2.74,4.65,1.94h0c1.65-.81,2.24-2.99,1.32-4.86l-1.11-2.27c-.92-1.87-3-2.74-4.65-1.93h0c-1.65.81-2.24,2.99-1.32,4.86l1.11,2.27Z"/>
    <path class="st41" d="M207.29,285.54c.96,1.96,3.08,2.89,4.73,2.08h0c1.65-.81,2.2-3.05,1.24-5.01l-1.16-2.37c-.96-1.96-3.07-2.89-4.72-2.08h0c-1.65.81-2.21,3.05-1.24,5.01l1.16,2.37Z"/>
    <g>
      <path class="st41" d="M201.48,289.81c.96,1.96,3.08,2.89,4.72,2.08h0c1.65-.81,2.21-3.05,1.24-5.01l-1.16-2.36c-.96-1.96-3.08-2.89-4.72-2.08h0c-1.65.81-2.21,3.05-1.24,5.01l1.16,2.36Z"/>
      <path class="st41" d="M174.9,270.64l12.31-9.81,11.43-5.88,8.57-1.02s4.08,10.34,9.29,8.49c5.21-1.84.24-13.89.24-13.89l8.62-3.65,7.36,18.1-4.76,4.09c-1.27,1.67-2.59,3.21-3.94,4.64-.82-.85-1.93-1.36-3.09-1.36-.61,0-1.2.14-1.74.4-1.33.65-2.12,1.98-2.23,3.41-.62-.31-1.28-.48-1.97-.48-.63,0-1.22.14-1.78.41-1.32.65-2.12,1.94-2.29,3.4-.7-.42-1.49-.66-2.28-.66-.61,0-1.19.13-1.73.4-1.56.76-2.37,2.47-2.27,4.28-.57-.26-1.19-.41-1.81-.41s-1.19.13-1.73.4c-2.1,1.03-2.87,3.78-1.8,6.2-.89.55-3.67,2.12-5.07,1.35-1.69-.92-1.84-3.37-1.84-3.37,0,0-3.22,2.15-5.68,0-2.45-2.15-1.07-3.68-1.07-3.68,0,0-3.53,1.53-5.06,0-1.53-1.53-1.07-3.68-1.07-3.68,0,0-2.15,1.53-4.6-1.53-2.45-3.07,0-6.14,0-6.14Z"/>
    </g>
  </g>
  <g>
    <g>
      <path class="st58" d="M62.94,190.39c0,12.47,10.11,22.59,22.59,22.59s22.59-10.11,22.59-22.59-10.11-22.59-22.59-22.59-22.59,10.11-22.59,22.59Z"/>
      <path class="st60" d="M105.11,190.39c0,10.81-8.77,19.58-19.58,19.58s-19.58-8.77-19.58-19.58,8.77-19.58,19.58-19.58,19.58,8.77,19.58,19.58Z"/>
      <g>
        <path class="st24" d="M97.56,189.61c.2-.2.3-.48.27-.77-.06-.51-.53-.88-1.04-.82l-11.51,1.38c-.51.06-.88.53-.82,1.04.06.51.53.88,1.04.82l11.51-1.38c.22-.03.41-.12.55-.27Z"/>
        <path class="st24" d="M85.72,190.99c.22-.22.29-.55.15-.81l-7.49-13.87c-.16-.3-.56-.38-.89-.18-.33.21-.46.62-.3.92l7.49,13.87c.16.3.56.38.89.18.05-.03.1-.07.14-.11Z"/>
      </g>
      <path class="st24" d="M76.52,206.02s.03-.04.05-.06l10.57-17.95c.13-.22.06-.51-.17-.64-.22-.13-.51-.05-.64.17l-10.57,17.95c-.13.22-.06.51.17.64.2.12.45.07.6-.1Z"/>
      <g>
        <path class="st24" d="M95.42,197.81"/>
        <path class="st24" d="M84.48,175.17c0,.58.47,1.05,1.05,1.05s1.05-.47,1.05-1.05-.47-1.05-1.05-1.05-1.05.47-1.05,1.05Z"/>
        <path class="st24" d="M84.48,205.61c0,.58.47,1.05,1.05,1.05s1.05-.47,1.05-1.05-.47-1.05-1.05-1.05-1.05.47-1.05,1.05Z"/>
        <path class="st24" d="M70.31,191.7c.58,0,1.05-.47,1.05-1.05s-.47-1.05-1.05-1.05-1.05.47-1.05,1.05.47,1.05,1.05,1.05Z"/>
        <path class="st24" d="M100.75,191.7c.58,0,1.05-.47,1.05-1.05s-.47-1.05-1.05-1.05-1.05.47-1.05,1.05.47,1.05,1.05,1.05Z"/>
        <path class="st24" d="M77.28,177.38c0,.32.26.58.58.58s.58-.26.58-.58-.26-.58-.58-.58-.58.26-.58.58Z"/>
        <path class="st24" d="M71.72,183.07c0,.32.26.58.58.58s.58-.26.58-.58-.26-.58-.58-.58-.58.26-.58.58Z"/>
        <path class="st24" d="M71.78,198.07c0,.32.26.58.58.58s.58-.26.58-.58-.26-.58-.58-.58-.58.26-.58.58Z"/>
        <path class="st24" d="M77.37,203.66c0,.32.26.58.58.58s.58-.26.58-.58-.26-.58-.58-.58-.58.26-.58.58Z"/>
        <path class="st24" d="M92.34,203.69c0,.32.26.58.58.58s.58-.26.58-.58-.26-.58-.58-.58-.58.26-.58.58Z"/>
        <path class="st24" d="M97.96,198.1c0,.32.26.58.58.58s.58-.26.58-.58-.26-.58-.58-.58-.58.26-.58.58Z"/>
        <path class="st24" d="M97.93,183.07c0,.32.26.58.58.58s.58-.26.58-.58-.26-.58-.58-.58-.58.26-.58.58Z"/>
        <path class="st24" d="M92.34,177.45c0,.32.26.58.58.58s.58-.26.58-.58-.26-.58-.58-.58-.58.26-.58.58Z"/>
      </g>
    </g>
    <g>
      <g>
        <polygon class="st21" points="123.48 229.96 135.31 236.44 142.07 218.4 130.24 211.91 123.48 229.96"/>
        <g>
          <path class="st69" d="M140.21,219.67c.09,0,.17-.05.22-.13.07-.12.02-.27-.1-.34l-9.52-5.22c-.12-.07-.27-.02-.34.1-.07.12-.02.27.1.34l9.52,5.22s.08.03.12.03Z"/>
          <path class="st69" d="M139.72,220.79c.09,0,.17-.05.22-.13.07-.12.02-.27-.1-.34l-9.52-5.22c-.12-.07-.27-.02-.34.1-.07.12-.02.27.1.34l9.52,5.22s.08.03.12.03Z"/>
          <path class="st69" d="M139.21,221.86c.09,0,.17-.05.22-.13.07-.12.02-.27-.1-.34l-9.52-5.22c-.12-.07-.27-.02-.34.1-.07.12-.02.27.1.34l9.52,5.22s.08.03.12.03Z"/>
        </g>
        <path class="st68" d="M110.81,320.77c-.52,2.09-4.32,4.36-6.67,7.41-1.04,1.35-1.78,2.69-2.98,3.36-2.09,1.17-4.54.93-4.9-.31-.57-1.96.05-6.54.05-6.54,0,0,.35-1.42,2.84-1.52.4-.02,2.21-1.47,4.06-2.42,5.43-2.79,8.11-2.06,7.6.03Z"/>
        <path class="st81" d="M100.85,325.95c.64-.28,1.22-.59,1.55-1.23,0-.02.01-.03.02-.05.05,0,.09,0,.14-.01.4-.02,2.21-1.47,4.06-2.42,1.67-.86,3.08-1.38,4.21-1.64,0,.06-.01.12-.03.18-.52,2.09-4.32,4.36-6.67,7.41-1.04,1.35-1.78,2.69-2.98,3.36-.53.29-1.07.5-1.61.62-.31-1.93.07-5.2.16-5.86.38-.08.75-.19,1.14-.36Z"/>
        <path class="st68" d="M116.44,332.3s-1.99.38-2.89,1.43c-.9,1.05-1.14,5.48.47,7.04,1.61,1.56,6.16-.86,10.35-.94,7.99-.15,11.83-2.39,11.21-4.67-.69-2.54-11.13-2.14-11.13-2.14l-8.02-.72Z"/>
        <path class="st12" d="M115.27,335.92c.76.17,1.54.23,2.36.12,1.03-.15,1.78-.54,2.38-1.14l5.95.53s6.46-.25,9.55.88c-.74,1.83-4.5,3.39-11.13,3.52-3.82.07-7.93,2.08-9.85,1.25-.4-1.89-.09-4.23.53-4.95.07-.08.14-.15.21-.22Z"/>
        <path class="st51" d="M101.46,318.81v4.37s-.1,2.23-2.01,2.23-2.02-1.63-2.02-1.63v-5.83l4.03.86Z"/>
        <path class="st51" d="M119.55,328.84v4.18s-.17,2.05-2.14,2.13c-2.66.12-2.66-1.43-2.66-1.43v-6.43l4.8,1.54Z"/>
        <path class="st65" d="M100.6,248.98c-.58.77-4.44,4.66-4.44,11.15s2.19,9.72,2.19,9.72c0,0,.58,10.67,2.25,15.57-7.3,12.07-2.17,14.66-3.74,33.06-.17,2,4.92,3.09,5.31,0,2.05-16.29,5.55-26.6,5.55-26.6,0,0,10.5-25.89,5.84-35.42-3.37-6.89-12.96-7.47-12.96-7.47Z"/>
        <path class="st32" d="M105.45,268.95s6.16.99,8.58,1.39c-1.79,10.37-6.32,21.54-6.32,21.54,0,0-3.5,10.31-5.55,26.6-.17,1.39-1.3,1.93-2.47,1.92.35-23.01,1.9-28,5.2-34.83-.67-7.09.57-16.62.57-16.62Z"/>
        <path class="st67" d="M104.42,254.92s-2.73,6.33-1.53,12.02c1.21,5.68,5.68,7.98,6.88,9.18,0,8.09,3,18.38,3.13,22.45-3.34,9.97.5,17.2,1.09,30.41.1,2.2,4.83,3.08,6.4,0,0-8.51,1.57-30.89,1.57-30.89,0,0,6.62-24.84-2.18-42.53-2.82-5.66-15.36-.64-15.36-.64Z"/>
        <path class="st76" d="M119.78,255.56c8.79,17.69,2.18,42.53,2.18,42.53,0,0-1.57,22.38-1.57,30.89-.6,1.18-1.66,1.77-2.75,1.94-3.81-27.12.04-32.96.04-32.96,0,0,1.15-13.89.8-22.37-.35-8.48-3.73-20.29-3.73-20.29l3.41-1.48c.68.41,1.24.98,1.62,1.74Z"/>
        <g>
          <path class="st75" d="M125.73,226.72c.2-.16.41-.32.6-.49.63-.55,1.25-1.13,1.81-1.76.13-.14.25-.29.36-.43-.13-.71,1.07-2.32,1.36-2.75,3.7-1.22,2.44-2.46,2.44-2.46l-3.76,1.73s-1.96,4.23-2.12,4.58l-.7,1.59Z"/>
          <path class="st6" d="M126.5,224.1c.55-.26.55.98,1.06.64.7-.46,1.39-.95,2.03-1.5.14-.12.28-.25.42-.38-.03-.72,1.37-2.16,1.72-2.54,3.76.01,2.39-1.45,2.39-1.45l-4.43,1.24-3.19,4Z"/>
          <path class="st51" d="M125.55,227.39c-.04-.06-.84-2.55-.84-2.55,0,0,.4-.12,1.31-.47.92-.35,1.85-2.34,1.85-2.34l3.98-2.63,4.3.64s.73,1.95-3.2.39c-.45.4-2.48,2.05-1.89,2.63.59.58,3.14-2.44,4.79-.56-3.22,1.48-5.45,3.6-5.45,3.6l-4.84,1.27Z"/>
        </g>
        <path class="st77" d="M126.49,223.98s.82.49,1.2,1.18c.39.7.36,1.63.36,1.63,0,0-16.37,7.35-17.26,6.85-4.48-2.49-13.51-7.58-13.45-7.56.08.02-2.96-3.28-1.26-5.77,2.87-4.21,7.92.06,7.92.06l7.33,6.64c.8.58,15.16-3.06,15.16-3.06Z"/>
        <path class="st7" d="M126.48,226.07c-.29-.67-.7-1.24-1.14-1.8.71-.18,1.15-.29,1.15-.29.01.02.82.49,1.2,1.18.39.7.36,1.63.36,1.63,0,0-.46.21-1.23.55-.06-.43-.16-.85-.34-1.27Z"/>
        <path class="st74" d="M123.38,231.2s-7.66-6.4-12.49-8.58c-4.83-2.17-17.38-9.41-14.24,4.02.63,2.7,4.59,11.67,4.34,15.53-.24,3.86-1.13,7.8-1.13,7.8,0,0-.24,5.75,6.76,7.14,7,1.39,13.52-.78,13.52-.78l.19-9.18,3.05-15.95Z"/>
        <path class="st80" d="M117.39,234.09s-.64,10.66-.8,15.69c-.11,3.54-.79,7.49-.79,7.49l4.34-.94.23-9.37.53-7.46-3.51-5.4Z"/>
        <path class="st3" d="M104.45,222.83c-.36,1.15,1.26,2.68,3.61,3.4,2.35.72,4.54.37,4.9-.78.35-1.15-1.26-2.68-3.61-3.4s-4.54-.37-4.9.78Z"/>
        <path class="st4" d="M115.8,218.74l-3.02.69s-.53,3.84-.75,5.14c-.22,1.3-1.52,1.82-3.95,1.03-2.45-.8-3.02-1.66-2.96-2.95.06-1.29.22-4.81.22-4.81l7.84-4.86,2.26,1.53.36,4.24Z"/>
        <path class="st51" d="M117.37,205.87c-.09-1.45,1.6,3.27,1.6,3.88s-.22,1.27-.22,1.78.22.91.22,1.45c0,1.24-2.45,5.76-3.17,5.76s-1.45-1.78-1.45-1.78l-.55-4.19,3.57-6.89Z"/>
        <path class="st65" d="M117.07,209.58s2.57-3.27.76-5.84c-1.81-2.57-5.49-4.8-9.8-3.34-4.31,1.46-5.49,4.87-5.49,4.87,0,0-4.03,0-4.45,4.31-.62,6.4,6.88,8.48,7.09,10.85h0c2.26.58,4.47,2.09,6.17-1.94.46-1.1,1.75-1.82,2.87-2.44,2.99-1.67,2.36-4.1,2.36-4.1,0,0,.7-1.32.49-2.36Z"/>
        <path class="st84" d="M113.13,207.5s4.19-2.31,3.07-4.36c-1.12-2.05-4.82-3.29-6.79-2.61-1.97.68.26,2.14-.16,3.98-.28,1.24-1.94,2.77-4.34,2.6-2.4-.17-.02,4.62,8.22.38Z"/>
        <path class="st51" d="M136.39,231.96v-1.09s0,0,0,0c0,0,.14-3.54-.16-4.66.79-.08,1.51,1.05,1.42,2.72,0,.12-.03.34.08.41.11.08.26-.14.26-.14l1.92-5.08,1.49,3.91c.2.54.13,1.14-.2,1.61l-1.77,2.53-1.1,2.4s-2.81-1.23-2.64-1.3c.08-.03.7-1.32.7-1.32Z"/>
        <path class="st51" d="M115.02,216.38s.37-1.71-.82-1.86c-1.19-.15-.98,1.95-.04,2.89.45.45.86-1.03.86-1.03Z"/>
        <path class="st3" d="M120.18,229.9s-2.91,1.76-2.83,4.97c.08,3.21,3.93,19.9,9.47,20.16,5.54.26,11.62-18.72,12.2-21.58.38-1.82-2.35-2.14-3.07-1.11-1.29,1.69-7.85,11.8-7.85,11.8,0,0-2.56-15.94-7.92-14.25Z"/>
        <path class="st8" d="M138.89,234.02c-.2-.18-.42-.35-.67-.49-.72-.39-1.79-.58-2.78-.48.21-.3.38-.54.5-.7.72-1.04,3.45-.71,3.07,1.11-.03.14-.08.34-.13.56Z"/>
        <path class="st10" d="M128.1,244.15l.83,4.68s5.14-8.21,3.82-9.21c-1.32-1-4.65,4.53-4.65,4.53Z"/>
        <polygon class="st11" points="137.31 223 125.96 218.5 126.43 217.4 137.87 221.92 138.78 222.91 137.31 223"/>
        <polygon class="st5" points="138 229.22 139.56 228.33 139.37 225.59 138 229.22"/>
      </g>
      <path class="st3" d="M103.16,205.83c.28.7,1.67.8,3.11.21,1.43-.58,2.36-1.62,2.08-2.32-.28-.7-1.67-.8-3.11-.22-1.43.58-2.36,1.62-2.08,2.32Z"/>
      <path class="st65" d="M98.16,200.21c0-3.06,2.48-5.54,5.54-5.54s5.54,2.48,5.54,5.54-2.48,5.54-5.54,5.54-5.54-2.48-5.54-5.54Z"/>
      <path class="st85" d="M103.44,195.99c-.44.83.19,2.02,1.41,2.66,1.22.65,2.56.5,2.99-.33.44-.83-.19-2.02-1.41-2.66-1.22-.65-2.56-.5-2.99.33Z"/>
    </g>
  </g>
  <g>
    <g>
      <g>
        <path class="st89" d="M295.6,126.84v29.8h-3.41v-26.36c0-1.9,1.52-3.45,3.41-3.45Z"/>
        <rect class="st33" x="262.21" y="126.19" width="29.98" height="30.44"/>
      </g>
      <path class="st61" d="M240.78,148.3h84.91c1.54,0,2.79-1.26,2.79-2.82v-62.33c0-1.56-1.25-2.82-2.79-2.82h-84.91c-1.54,0-2.79,1.26-2.79,2.82v62.33c0,1.56,1.25,2.82,2.79,2.82Z"/>
      <path class="st16" d="M236.47,148.3h84.91c1.54,0,2.79-1.26,2.79-2.82v-62.33c0-1.56-1.25-2.82-2.79-2.82h-84.91c-1.54,0-2.79,1.26-2.79,2.82v62.33c0,1.56,1.25,2.82,2.79,2.82Z"/>
      <path class="st35" d="M320.28,83.12h-82.31c-1.04,0-1.88.83-1.88,1.86v56.64c0,1.03.84,1.86,1.88,1.86h82.31c1.04,0,1.88-.83,1.88-1.86v-56.64c0-1.03-.84-1.86-1.88-1.86Z"/>
    </g>
    <path class="st19" d="M260.35,85.09h-20.29c-.76,0-1.38.63-1.38,1.4v38.3c0,.77.62,1.4,1.38,1.4h20.29c.76,0,1.38-.63,1.38-1.4v-38.3c0-.77-.62-1.4-1.38-1.4Z"/>
    <polygon class="st59" points="297.27 179.27 295.47 159.22 293.69 159.22 295.49 179.27 297.27 179.27"/>
    <rect class="st58" x="204.7" y="156.41" width="114.08" height="3.81"/>
    <path class="st16" d="M247.59,179.27h14.15l.04-.52-14.93-1.04.73,1.28c0,.09.01.18.02.27Z"/>
    <path class="st16" d="M234.91,179.27h44.15c-.9-1.36-2.2-2.48-3.81-3.17l-.31.74.25-.76c-11.93-5.26-31-3.51-38.65-2.52l-.86.11.02.09c-.22.04-.5.08-.8.12v5.4Z"/>
    <path class="st47" d="M223.65,171.58h-3.85c-1.99,0-3.61-1.64-3.61-3.66v-4.99c0-.44.35-.8.79-.8s.79.36.79.8v4.99c0,1.13.91,2.05,2.03,2.05h3.85c.44,0,.79.36.79.8s-.35.8-.79.8Z"/>
    <g>
      <path class="st64" d="M309.31,145.8h-6.09c-.52,0-.95.43-.95.96v8.67c0,.53.42.96.95.96h6.09c.52,0,.95-.43.95-.96v-8.67c0-.53-.42-.96-.95-.96Z"/>
      <path class="st64" d="M302.95,153.12h-1.38c-.95,0-1.73-.79-1.73-1.75v-1.31c0-.97.78-1.75,1.73-1.75h1.38v-.71h-1.38c-1.34,0-2.43,1.11-2.43,2.46v1.31c0,1.36,1.09,2.47,2.43,2.47h1.38v-.71Z"/>
    </g>
    <polygon class="st59" points="321.44 179.27 319.65 159.36 317.87 159.36 319.66 179.27 321.44 179.27"/>
    <path class="st13" d="M243.36,179.27h1.6l-1.08-8.02c-.06-.44-.46-.74-.89-.69-.43.06-.74.46-.68.9l1.05,7.81Z"/>
    <path class="st59" d="M319.67,156.41s-25.9,0-25.9,0v3.81h25.89s.01-3.81.01-3.81Z"/>
    <g>
      <path class="st23" d="M269.7,85.09h23.66v28.14h-26.97v-24.84c0-1.82,1.48-3.31,3.31-3.31Z"/>
      <path class="st19" d="M293.36,85.08h24.27c1.55,0,2.8,1.26,2.8,2.8v25.38h-27.08v-28.18h0Z"/>
    </g>
    <g class="st57">
      <rect class="st49" x="298.51" y="118.86" width=".11" height="1.87"/>
    </g>
    <g>
      <path class="st23" d="M296.77,113.23h23.56v28.18h-26.97v-24.77c0-1.88,1.53-3.41,3.41-3.41Z" transform="translate(613.69 254.64) rotate(180)"/>
      <path class="st19" d="M266.39,113.22h23.58c1.87,0,3.39,1.52,3.39,3.39v24.79h-26.97v-28.18h0Z" transform="translate(559.76 254.63) rotate(180)"/>
    </g>
    <g>
      <path class="st23" d="M295.89,103.29c1.85-1.98.19-1.32,5.74,1.53.42.22,1.2-.16,1.43-.66,1.17-2,2.2-3.98,3.03-5.45l2.69,1.93c-.17.44-.35.76-.41.89-3.79,7.33-3.92,6.95-5,7.33-1.65.59-6.45-3.89-7.54-5.01-.13-.13-.08-.39.08-.56Z"/>
      <path class="st13" d="M318.59,89.59c.14.49.19,1.02.46,1.45.23.36.6.6.86.95.26.34.38.88.07,1.21-.14.15-.35.22-.5.37-.4.43-.06,1.1.05,1.67.12.64-.13,1.36-.62,1.79-.36.31-.86.54-.96,1-.08.37.15.77-.02,1.1-.25.49-1.01.3-1.44.63-.3.24-.37.67-.52,1.02-.28.67-.97,1.14-1.66,1.15-.37,0-.75-.11-1.11.02-.46.17-.76.7-1.23.79-.99.19-1.13-1.02-1.74-1.69-.77-.85-2.38-.86-2.67-1.99-.07-.27-.05-.58-.24-.78-.19-.2-.51-.2-.72-.37-.39-.33-.16-1.04-.31-1.52-.03-.04-.15-.28-.19-.31-1.51-2.66-1.55-5.72.15-7.55,1.41-1.51,3.68-1.82,5.92-1.05.02-.02.04-.04.06-.06.53-.41,1.16-.48,1.8-.4,1.18.15,1.47,1.29,2.43,1.56.37.1.77-.12,1.15-.06.49.07.8.58.94,1.06Z"/>
      <g>
        <path class="st13" d="M308.31,94.31c.52-.34,1.53-.63,1.93-.93.27-.2.54-.41.75-.66.11-.13.25-.35.32-.72,0,0-.18-.4-.03-.1-.34-.71-.39-1.37-.24-1.96-.06-.35-.17-.74-.54-1.21-.81-1.04-1.31-.96-1.87-1.24-.55-.27-.53-.21-1.25-.38-.63-.15-1.32.01-1.84.4,0,0-.3.25-.41.38-.11.14-.22.29-.32.44-.17.08-.79.43-.9.88-.21.88.01,1.28.01,1.28.45-.04.9-.61,1.27-.5.17.07.24.1.33.17.5.38.92.69,1.04,1.37.1.56-.14,1.21.21,1.65.32.4.97.43,1.32.8.09.09.14.2.19.31Z"/>
        <path class="st13" d="M312.88,91.75c-.11.44-1.82,2.38-2.49,2.83,0,0-.69.97-.69.96-.69-.63.03-2.27.03-2.27.17-.15.27-.48.23-.85-.04-.49-.3-.87-.57-.84-.02,0-.04.02-.06.03l1.7-1.86c.29.85,2.28.22,1.84,2Z"/>
      </g>
      <g>
        <path class="st20" d="M296.98,100.51c-.11-.02-.22.06-.24.17l-.21,1.07c-.02.12.05.23.16.26.11.02.22-.06.24-.17l.21-1.07c.02-.12-.05-.23-.16-.26Z"/>
        <path class="st20" d="M294.9,101.91c-.04-.18-.05-.36,0-.49.04-.11.12-.17.2-.23.21-.15.44-.27.69-.36.23-.08.52-.1.76.13.23.22.34.55.35.85.02.57.02.77-.22,1.17-.3.5-.74.61-1.2-.05-.24-.34-.52-.63-.6-1.02Z"/>
        <path class="st20" d="M296.28,101.18l-.92-1.27c-.06-.09-.04-.21.04-.27.08-.06.21-.04.27.04l.92,1.27c.06.09.04.21-.04.27-.08.06-.21.04-.27-.04Z"/>
        <path class="st20" d="M295.77,101.36l-.92-1.27c-.06-.09-.04-.21.04-.27.08-.06.21-.04.27.04l.92,1.27c.06.09.04.21-.04.27-.08.06-.21.04-.27-.04Z"/>
        <path class="st20" d="M295.43,101.88l-.92-1.27c-.06-.09-.04-.21.04-.27.08-.06.21-.04.27.04l.92,1.27c.06.09.04.21-.04.27-.08.06-.21.04-.27-.04Z"/>
        <path class="st20" d="M295.3,102.47l-.92-1.27c-.06-.09-.04-.21.04-.27.08-.06.21-.04.27.04l.92,1.27c.06.09.04.21-.04.27-.08.06-.21.04-.27-.04Z"/>
      </g>
      <g>
        <path class="st23" d="M313.31,108.24c.46-.09.85-.87.72-1.41-.61-4.77-1.62-9.15-.89-9.13,2.95.06,3.38,3.27,3.47,3.76,1.46,8.14,1.13,7.92.51,8.89-.94,1.49-7.45.94-8.99.74-.18-.02-.3-.26-.28-.49.26-2.71-.65-1.16,5.45-2.36Z"/>
        <path class="st13" d="M313.62,113.19c-1.04-.02-2.08-.02-3.12,0h3.12Z"/>
        <path class="st23" d="M306.98,112.58c.02.24-.08.49-.19.65h10.16c-.09-1.98-.62-5.05-.15-9.25.25-2.21-.61-5.55-2.5-5.98-2.45-.56-5.04-1.63-6.45-.74-.54.26-.99.58-1.37.92-1.66,1.47-.43,3.95.34,5.98,2,5.28-.19,4.68.16,8.41Z"/>
        <path class="st52" d="M306.92,112.63s.05-.03.05-.05c-.14-1.45.11-2.23.35-2.99.36-1.14.71-2.21-.52-5.43-.08-.21-.16-.42-.25-.63-.74-1.87-1.57-3.99-.11-5.29.28-.25.58-.47.9-.66.02-.01.03-.04.02-.07-.01-.02-.04-.03-.07-.02-.33.2-.63.42-.92.67-1.51,1.35-.66,3.5.08,5.41.08.21.17.43.25.63,1.21,3.19.89,4.2.52,5.37-.24.76-.5,1.55-.36,3.03,0,.03.02.04.05.04Z"/>
        <rect class="st23" x="307.72" y="93.27" width=".58" height=".15" rx=".03" ry=".03" transform="translate(616.02 186.69) rotate(180)"/>
        <g>
          <path class="st20" d="M309.41,100.03c.6-.56,1.21-1.11,1.82-1.66.4-.35.49-.87.21-1.13-.39-.36-.91-.59-1.55-.5-.71.11-2,.67-1.86,1.39.17.88.07.47.45,1.84.1.35.58.38.93.05Z"/>
          <g>
            <path class="st42" d="M305.45,91.25l2.75-.46c.12-.02.21-.14.19-.26l-.24-1.48c-.04-.25-.27-.41-.52-.37l-2.53.42c-.59.1-.99.66-.89,1.26.1.59.66,1,1.24.9Z"/>
            <path class="st13" d="M309.94,93.54c-.07.43-.2.8-.39,1.09,0,0,0,.01,0,.01-.73-.56-.8-1.32-.8-1.32.15-.16.23-.48.17-.84-.08-.47-.36-.82-.62-.77-.02,0-.04.02-.05.03l1.53-1.93c.35.8.48,1.98.18,3.73Z"/>
            <path class="st20" d="M304.5,89.38c-.5.56-.77,1.34-.63,2.14l.34,2.03c.23,1.39,1.55,2.33,2.93,2.09,1.38-.24,2.31-1.57,2.08-2.96l-.33-1.97-4.39-1.34Z"/>
            <path class="st20" d="M311.21,97.25l-2.27-4.49c-.13-.27-.42-.39-.64-.28l-1.58.81c-.22.11-.28.42-.15.69l2.26,4.48,2.37-1.21Z"/>
            <path class="st13" d="M304.01,91.56l.47-.08c.07-.01.14.05.15.14.01.09-.03.17-.1.18l-.47.08c-.07.01-.14-.05-.15-.14-.01-.09.03-.17.1-.18Z"/>
            <path class="st36" d="M305.11,93.1v-.06c.05.12.14.22.25.24l.29.04c.1.02.18-.05.21-.14v.03c.08.18-.05.37-.21.34l-.29-.04c-.17-.03-.29-.22-.25-.42Z"/>
            <g>
              <path class="st13" d="M306.46,91.93c.03.16.13.27.23.25.1-.02.16-.16.14-.31-.03-.16-.13-.27-.23-.25-.1.02-.16.16-.14.31Z"/>
              <polygon class="st13" points="306.59 91.61 306.28 91.67 306.5 91.83 306.59 91.61"/>
            </g>
            <g>
              <path class="st13" d="M304.27,92.29c.03.16.13.27.23.25.1-.02.16-.16.14-.31-.03-.16-.13-.27-.23-.25-.1.02-.16.16-.14.31Z"/>
              <polygon class="st13" points="304.4 91.98 304.09 92.03 304.31 92.19 304.4 91.98"/>
            </g>
            <path class="st20" d="M308.99,91.63c.39-.07.77.26.85.74.08.48-.17.92-.56.99-.39.07-.77-.26-.85-.74-.08-.48.17-.92.56-.99Z"/>
            <path class="st13" d="M308.01,91.14c.37.41.62.92,1,1.32.25.26.55.46.88.6.44.18.63.02.92-.35.27-.34.56-.69.34-1.07-.45-.79-1.34-1.21-1.86-1.96-.38-.54-.58-1.27-1.17-1.57-.36-.18-.79-.15-1.18-.06-.47.11-.93.29-1.38.47-.33.13-.66.26-.98.39-.04.02-.08.03-.1.06-.03.03-.04.08-.05.13-.03.18-.2.61-.13.78.08.18.32.15.48.13,1.66-.17,2.77.64,3.22,1.13Z"/>
            <path class="st13" d="M306.18,90.79l.61-.1c.09-.01.17.05.19.14.01.09-.05.18-.14.19l-.61.1c-.09.01-.17-.05-.19-.14-.01-.09.05-.18.14-.19Z"/>
          </g>
        </g>
        <path class="st52" d="M312.52,111.41c2.09,0,4.18-.22,4.69-1.03.04-.06.08-.12.11-.17.54-.81.75-1.12-.62-8.75v-.07c-.06-.27-.16-.9-.46-1.57l-.09.04c.29.66.39,1.28.44,1.54v.07c1.37,7.59,1.18,7.89.65,8.68-.04.06-.08.11-.12.18-.92,1.45-7.29.93-8.95.72-.15-.02-.26-.22-.24-.43.03-.33.05-.59.06-.81q.05-.89,1.12-.95c.77-.05,2.05-.13,4.24-.56.2-.04.39-.19.54-.43.21-.32.29-.73.22-1.04-.19-1.46-.41-2.89-.61-4.16-.19-1.23-.36-2.3-.46-3.14h-.1c.09.85.26,1.92.46,3.16.2,1.26.43,2.7.61,4.16.07.29-.02.67-.21.97-.14.21-.31.35-.48.39-2.18.43-3.46.51-4.23.56-1.14.07-1.16.09-1.21,1.05-.01.21-.03.48-.06.8-.03.27.12.52.32.54.77.1,2.56.27,4.35.27Z"/>
      </g>
      <path class="st23" d="M306.75,93.79c.04.17-.1.36-.32.42-.22.06-.44-.03-.49-.21l.81-.22Z"/>
      <g>
        <path class="st20" d="M306.77,107.66c-.09.06-.12.2-.05.3l.6.9c.07.1.2.13.29.07.09-.06.12-.2.05-.3l-.6-.9c-.07-.1-.2-.13-.29-.07Z"/>
        <path class="st20" d="M306.29,110.14c-.15-.1-.29-.21-.35-.35-.05-.1-.04-.21-.02-.31.04-.26.12-.51.24-.75.11-.22.3-.45.63-.46.32,0,.63.14.85.34.41.38.56.53.67.98.14.57-.09.96-.88.83-.4-.07-.81-.07-1.13-.29Z"/>
        <path class="st20" d="M306.75,108.64l-1.54-.23c-.1-.02-.18-.11-.16-.22.02-.11.11-.18.22-.16l1.54.23c.1.02.18.11.16.22-.02.11-.11.18-.22.16Z"/>
        <path class="st20" d="M306.52,109.13l-1.54-.23c-.1-.02-.18-.11-.16-.22.02-.11.11-.18.22-.16l1.54.23c.1.02.18.11.16.22-.02.11-.11.18-.22.16Z"/>
        <path class="st20" d="M306.65,109.74l-1.54-.23c-.1-.02-.18-.11-.16-.22.02-.11.11-.18.22-.16l1.54.23c.1.02.18.11.16.22-.02.11-.11.18-.22.16Z"/>
        <path class="st20" d="M306.96,110.25l-1.54-.23c-.1-.02-.18-.11-.16-.22.02-.11.11-.18.22-.16l1.54.23c.1.02.18.11.16.22-.02.11-.11.18-.22.16Z"/>
      </g>
    </g>
    <g>
      <g>
        <path class="st20" d="M272.28,125.78c-.13-.03-.26.07-.28.2l-.24,1.24c-.03.14.06.27.18.3.13.03.26-.07.28-.2l.24-1.24c.03-.14-.06-.27-.18-.3Z"/>
        <path class="st20" d="M269.88,127.4c-.04-.2-.06-.41,0-.57.05-.12.14-.2.23-.27.24-.18.51-.32.8-.41.27-.09.6-.12.88.15.27.26.4.64.41.98.02.66.03.89-.25,1.35-.35.58-.85.71-1.39-.05-.27-.39-.6-.73-.69-1.18Z"/>
        <path class="st20" d="M271.47,126.56l-1.06-1.47c-.07-.1-.05-.24.05-.31.1-.07.24-.05.31.05l1.06,1.47c.07.1.05.24-.05.31-.1.07-.24.05-.31-.05Z"/>
        <path class="st20" d="M270.88,126.77l-1.06-1.47c-.07-.1-.05-.24.05-.31.1-.07.24-.05.31.05l1.06,1.47c.07.1.05.24-.05.31-.1.07-.24.05-.31-.05Z"/>
        <path class="st20" d="M270.49,127.37l-1.06-1.47c-.07-.1-.05-.24.05-.31.1-.07.24-.05.31.05l1.06,1.47c.07.1.05.24-.05.31-.1.07-.24.05-.31-.05Z"/>
        <path class="st20" d="M270.34,128.05l-1.06-1.47c-.07-.1-.05-.24.05-.31.1-.07.24-.05.31.05l1.06,1.47c.07.1.05.24-.05.31-.1.07-.24.05-.31-.05Z"/>
      </g>
      <path class="st20" d="M271.69,127.34c.03.2.07.39.1.59.32,1.84.77,4.61,1.22,6.28.24.88,3.6-3.29,4.64-4.29l.99,3.31c-2.35,2.29-6.23,5.67-6.7,4.05-.92-3.15-.99-6.74-1.1-9.21-.01-.23-.02-.46-.03-.67.31.1.5.08.87-.06Z"/>
      <g>
        <path class="st15" d="M278.75,141.41h9.25c-.88-3.11-1.36-5.38-1.38-7.26-.02-2.06-1.97-4.87-4.13-5.16-2.89-.38-2.92-.29-4.36.54-1.88,1.27-1.67,4.33-.88,6.17,1.26,2.95,1.53,4.54,1.5,5.71Z"/>
        <path class="st20" d="M279.89,131.95c.77-.34,1.55-.67,2.32-.99.5-.21.77-.68.58-1.04-.26-.5-.69-.91-1.33-1.04-.72-.15-2.16-.05-2.27.72-.13.93-.09.49-.18,1.98-.02.38.44.58.88.38Z"/>
      </g>
      <path class="st20" d="M284.48,139.12c.12.74.2,1.51.25,2.29h2.18c.22-2.89.16-5.9-.3-8.51-.15-.84-.86-1.46-1.7-1.48-1.2-.02-2.07,1.14-1.72,2.3.47,1.52.99,3.51,1.29,5.4Z"/>
      <path class="st13" d="M282.92,115.21c.3.01.61.09.9.01.25-.06.46-.23.7-.32.24-.08.57-.05.69.19.06.11.05.25.11.36.16.32.61.25.95.29.38.05.74.33.88.71.1.27.13.6.37.75.19.11.46.06.61.23.23.24-.03.64.07.96.07.22.3.34.47.5.32.29.45.78.32,1.19-.07.22-.21.42-.21.65,0,.3.24.57.2.87-.09.61-.79.46-1.29.68-.63.28-.95,1.22-1.64,1.17-.16-.01-.34-.08-.48-.01-.15.07-.21.26-.35.35-.26.16-.62-.11-.91-.11-.03,0-.19.04-.21.05-1.79.36-3.51-.2-4.2-1.54-.57-1.11-.29-2.49.58-3.65,0-.02-.01-.03-.02-.04-.13-.39-.04-.77.13-1.13.32-.66,1.01-.6,1.35-1.11.13-.19.09-.47.19-.68.14-.27.48-.35.78-.34Z"/>
      <g>
        <path class="st13" d="M281.97,125.49c.52-.36,1.54-.7,1.94-1.01.27-.21.54-.43.75-.7.1-.14.24-.36.3-.74,0,0-.2-.4-.04-.1-.38-.7-.46-1.38-.32-1.98-.07-.35-.21-.74-.6-1.2-.87-1.03-1.38-.93-1.97-1.18-.58-.25-.55-.19-1.3-.33-.65-.12-1.35.06-1.88.48,0,0-.3.27-.41.4-.11.15-.21.3-.31.46-.17.09-.79.47-.89.93-.18.9.07,1.3.07,1.3.46-.05.9-.65,1.29-.56.17.06.25.09.35.16.53.37.97.66,1.13,1.35.13.56-.1,1.23.29,1.67.34.39,1.02.4,1.39.76.09.09.16.2.21.31Z"/>
        <path class="st13" d="M285.48,122.95c-.09.45-1.78,2.48-2.45,2.97,0,0-.67,1.01-.67,1-.74-.61-.06-2.3-.06-2.3.17-.16.25-.5.21-.87-.06-.49-.34-.87-.62-.83-.02,0-.04.02-.06.03l1.67-1.95c.33.85,2.36.13,1.97,1.95Z"/>
      </g>
      <g>
        <g>
          <path class="st42" d="M278.95,122.14l2.88.06c.13,0,.24-.1.24-.23l.03-1.55c0-.26-.2-.47-.45-.48l-2.65-.06c-.61-.01-1.13.49-1.14,1.11-.01.62.48,1.14,1.09,1.15Z"/>
          <path class="st13" d="M283.09,125.33c-.16.42-.36.77-.6,1.03,0,0,0,.01,0,.01-.63-.7-.57-1.5-.57-1.5.19-.13.32-.45.33-.82,0-.49-.21-.9-.49-.9-.02,0-.04.01-.06.02l1.92-1.67c.2.88.12,2.1-.52,3.83Z"/>
          <path class="st20" d="M278.34,120.05c-.62.48-1.03,1.21-1.04,2.05l-.03,2.13c-.02,1.46,1.14,2.67,2.59,2.69,1.44.02,2.65-1.15,2.67-2.61l.03-2.06-4.21-2.21Z"/>
          <path class="st20" d="M282.03,130.62l-1.52-.02c-.21,0-.38-.23-.37-.5l.08-5.15c0-.27.18-.5.39-.49l1.52.02c.21,0,.38.23.37.5l-.08,5.15c0,.27-.18.5-.39.49Z"/>
          <path class="st13" d="M279.78,121.92h.64c.09.02.17.09.17.19,0,.09-.08.17-.17.17h-.64c-.09-.02-.17-.09-.17-.19,0-.09.08-.17.17-.17Z"/>
          <path class="st13" d="M277.44,121.88h.5c.07.01.13.09.13.18,0,.09-.06.17-.14.17h-.5c-.07-.01-.13-.09-.13-.18,0-.09.06-.17.14-.17Z"/>
          <path class="st36" d="M278.27,123.95l.02-.06c.01.13.08.25.2.29l.28.1c.1.03.19-.02.24-.1v.03c.04.2-.12.37-.28.31l-.28-.1c-.17-.06-.25-.28-.18-.47Z"/>
          <g>
            <path class="st13" d="M279.85,123.02c0,.16.08.3.18.3.11,0,.19-.13.2-.29,0-.16-.08-.3-.18-.3-.11,0-.19.13-.2.29Z"/>
            <polygon class="st13" points="280.05 122.73 279.72 122.72 279.92 122.93 280.05 122.73"/>
          </g>
          <g>
            <path class="st13" d="M277.56,122.98c0,.16.08.3.18.3.11,0,.19-.13.2-.29,0-.16-.08-.3-.18-.3-.11,0-.19.13-.2.29Z"/>
            <polygon class="st13" points="277.75 122.68 277.43 122.68 277.62 122.88 277.75 122.68"/>
          </g>
          <path class="st20" d="M282.48,123.21c.41,0,.74.42.73.92,0,.5-.35.9-.76.89-.41,0-.74-.42-.73-.92,0-.5.35-.9.76-.89Z"/>
          <path class="st13" d="M283.15,121.28c-.28-.62-.35-1.4-.89-1.82-.33-.26-.77-.31-1.19-.29-.5.02-.99.11-1.49.21-.36.07-.72.14-1.07.21-.04,0-.08.02-.12.04-.04.03-.06.08-.07.12-.07.17-.32.59-.28.77.05.2.3.22.47.23,1.72.15,2.7,1.18,3.07,1.77.3.49.46,1.05.77,1.53.2.31.47.57.78.77.01,0,.03.02.04.02l.96-2.17c-.34-.45-.74-.88-.97-1.39Z"/>
        </g>
        <path class="st23" d="M279.4,125.03c-.03.18-.05.36-.44.41,0,0-.65.08-.58-.35l1.03-.06Z"/>
      </g>
      <path class="st64" d="M278.56,119.02s4.92.61,5.05,6.37c0,0,.25-.17.56-.45.94-.84,1.15-2.26.49-3.34-.79-1.28-2.19-3-4.2-3.4-1.42-.28-1.89.81-1.89.81Z"/>
    </g>
    <g>
      <path class="st40" d="M299.61,141.43c.4-.97.89-1.94,1.46-2.87.3-.49.64-.99,1-1.51.17-.25.34-.5.52-.76,1.04-1.56,2.14-3.4,1.96-5.59-.01-.13,0-.25,0-.4l.02-.15-.07-.14c-.26-.52-.5-1.06-.71-1.59l-.15-.39-.4.07c-.79.14-1.63.4-2.04.63-1.16.65-2.98,2.67-4.45,5.69-.85,1.75-1.7,4.08-2.22,7h5.08Z"/>
      <path class="st40" d="M315.17,141.43c.06-1.37.09-2.73.06-4.09.02.02.05.05.07.07l-1.57-8.34s-.03-.03-.05-.04c-1.39-1.1-2.17-1.02-2.58-1.15-3.04-.61-7.49-.13-7.49-.13-2.09.33-4.52,2.02-4.47,4.16.06,2.69,1.77,5.72,1.78,9.52h14.25Z"/>
      <path class="st25" d="M300.82,141.43h.2c0-2.13-.53-4.02-1.01-5.71-.39-1.37-.75-2.67-.77-3.88,0-.05-.04-.1-.1-.1-.06,0-.1.05-.1.1.02,1.23.39,2.54.78,3.93.47,1.68,1,3.56,1,5.66Z"/>
      <path class="st20" d="M305,130.38h3.24c.5,0,.92-.42.92-.93v-.57c0-.51-.41-.93-.92-.93h-3.24c-.5,0-.92.42-.92.93v.57c0,.51.41.93.92.93Z"/>
      <path class="st40" d="M310.41,130.7c-.18,2.19.91,4.04,1.96,5.59.17.25.34.51.52.76.36.52.7,1.02,1,1.51.57.94,1.06,1.9,1.46,2.87h3.12c1.03,0,1.79-.98,1.54-1.99-.5-2.01-1.15-3.68-1.8-5.02-1.47-3.02-3.29-5.03-4.45-5.69-.41-.23-1.25-.49-2.04-.63l-.4-.07-.15.39c-.21.53-.45,1.06-.71,1.59l-.07.14.02.15c.02.15.02.28,0,.4Z"/>
      <path class="st25" d="M315.39,141.49s-.09-.03-.11-.08c-.4-.97-.89-1.93-1.45-2.86-.3-.49-.64-.98-.99-1.5-.17-.25-.35-.5-.52-.76-.48-.72-.98-1.51-1.36-2.38-.03-.06,0-.14.06-.16.06-.03.13,0,.16.06.37.86.87,1.63,1.34,2.34.17.25.34.51.51.76.36.52.7,1.02,1,1.52.57.94,1.07,1.91,1.47,2.89.03.06,0,.14-.07.16-.02,0-.03,0-.05,0Z"/>
      <g>
        <path class="st13" d="M308.42,119.16c.27.32.53.71.46,1.12-.03.17-.11.33-.12.5-.01.28.17.53.31.77.15.24.27.55.14.8-.12.24-.43.32-.57.55-.22.33-.04.89-.37,1.1-.14.09-.32.08-.45.18-.17.15-.13.45-.29.62-.12.13-.33.13-.49.04-.15-.08-.26-.23-.36-.39-.17-.29-.31-.63-.24-.97.08-.39.4-.67.62-1,.34-.53.07-1.24-.29-1.76-.12-.17.05-.34-.08-.5-.13-.16-.23-.37-.2-.58.02-.19.14-.35.23-.51.09-.17.15-.38.05-.54-.05-.08-.12-.13-.17-.2-.12-.21.05-.41.25-.46.2-.04.3.05.45.17.4.32.78.68,1.12,1.07Z"/>
        <path class="st13" d="M301.02,118.56c.04-.38.14-.8.45-1.01.13-.09.28-.13.4-.23.19-.17.25-.44.31-.69.07-.25.19-.53.44-.59.23-.06.48.1.72.06.35-.06.61-.52.96-.42.14.04.25.18.4.2.21.03.38-.19.59-.18.16,0,.29.15.33.31.04.16,0,.33-.03.49-.08.3-.22.61-.48.77-.31.19-.69.14-1.05.19-.56.09-1.08.52-1.2,1.09-.04.19-.03.38-.06.57-.03.19-.1.38-.25.5-.14.1-.32.12-.48.16-.16.04-.34.13-.38.3-.02.08,0,.16-.03.24-.06.22-.3.22-.46.11-.15-.11-.15-.24-.17-.41-.04-.48-.04-.96,0-1.44Z"/>
        <path class="st20" d="M307.17,121.25c.41-.02.77.37.8.89.03.51-.28.95-.7.97-.41.02-.77-.37-.8-.89-.03-.51.28-.95.7-.97Z"/>
        <path class="st20" d="M302.33,118.34c-.63.59-1.02,1.46-.96,2.42l.4,2.46c.09,1.66,1.47,2.87,2.5,2.71,1.55-.23,3.04-1.42,2.94-3.07l-.13-2.35-4.74-2.17Z"/>
        <path class="st20" d="M308.32,128.98l-.61-6.13c-.03-.32-.3-.55-.6-.52l-2.17.23c-.3.03-.52.31-.49.63l.59,5.92,3.28-.13Z"/>
        <path class="st13" d="M303.92,120.47l.65-.03c.09,0,.18.07.18.17,0,.1-.07.18-.16.19l-.65.03c-.09,0-.18-.07-.18-.17,0-.1.07-.18.16-.19Z"/>
        <path class="st13" d="M301.38,120.6l.65-.03c.09,0,.18.07.18.17,0,.1-.07.18-.16.19l-.65.03c-.09,0-.18-.07-.18-.17,0-.1.07-.18.16-.19Z"/>
        <path class="st13" d="M301.86,121.4c0,.17.11.31.21.3.11,0,.19-.15.18-.32,0-.17-.11-.31-.21-.3-.11,0-.19.15-.18.32Z"/>
        <path class="st13" d="M304.29,121.32c0,.17.11.31.21.3s.19-.15.18-.32c0-.17-.11-.31-.21-.3-.11,0-.19.15-.18.32Z"/>
        <path class="st36" d="M302.71,122.35l.02-.06c.03.13.12.25.26.28l.34.08c.12.03.22-.03.28-.12v.03c.06.2-.11.38-.31.34l-.34-.08c-.2-.05-.32-.27-.25-.47Z"/>
        <path class="st39" d="M302.48,118.29s1.25-.85,3.16-.43l-.69.67-2.48-.23Z"/>
        <path class="st13" d="M301.65,118.71s2.72,2.18,6.17,1.85l-.14-2.04-4.93-.94-1.11,1.12Z"/>
        <path class="st13" d="M307.13,120.58l.19,2.26c.09.72-.01,1.53-.44,2.1-.21.28-.74.79-1.03,1-.54.4-1.94.37-2.54.39-.55.02-1.16-.53-1.3-1.08l-.24-1.9s1.9.07,3.05-.31c.94-.31,1.02-.52,1.22-1.52l.41-1.98.67,1.03Z"/>
        <path class="st23" d="M304.17,123.75c-.01.19-.11.43-.55.52,0,0-.66.11-.62-.34l1.18-.18Z"/>
        <path class="st13" d="M308.75,118.64c.03.15.03.31.09.45.07.17.2.31.27.48.33.76-.64,1.71-.2,2.41-.3-.02-.51-.33-.62-.63-.11-.3-.17-.64-.38-.88-.31-.36-.83-.36-1.23-.6-.34-.21-.58-.6-.95-.75-.41-.17-.89-.01-1.29-.19-.27-.12-.5-.38-.8-.39-.14,0-.27.05-.41.03-.98-.13-.04-1.65.26-1.97.45-.47,1.17-.96,1.83-.87.78.11,1.11.93,1.73,1.34.64.43,1.51.66,1.7,1.58Z"/>
      </g>
    </g>
    <g>
      <g>
        <path class="st20" d="M285.1,113.23c0-.09,0-.18-.02-.27v-.03s0-.03,0-.03c.04-.79-.07-1.64-.19-2.35l-3.81.15c.36,1.07.4,1.21.66,2.05-2.79-.67-8.57-2.18-9.82-2.63l-.6,1.58c1.02.52,2.08,1.03,3.13,1.52h10.65Z"/>
        <path class="st16" d="M280.36,110.37c-.65-2.11-1.35-5.06-1.64-6.38l5.48.24c.14.87,1.1,3.63,1.66,5.32.21.65-.24,1.32-.92,1.36l-3.55.2c-.47.03-.9-.28-1.03-.73Z"/>
        <path class="st61" d="M281.47,111.22s.04,0,.06,0l3.55-.2c.36-.02.68-.2.88-.5.2-.3.25-.67.14-1.01-.11-.33-.23-.69-.36-1.07-.26-.79-.56-1.68-.8-2.44-.02-.06-.09-.1-.15-.08-.06.02-.1.09-.08.15.24.77.54,1.66.8,2.45.13.38.25.75.36,1.07.09.27.05.56-.11.8-.16.24-.41.38-.7.4l-3.55.2c-.42.03-.79-.24-.91-.65-.4-1.32-.8-2.85-1.06-3.9-.02-.06-.08-.1-.15-.09-.06.02-.1.08-.09.15.26,1.06.66,2.59,1.06,3.91.15.49.59.82,1.09.82Z"/>
        <g>
          <path class="st20" d="M271.07,108.24c-.13.05-.2.2-.15.34l.45,1.25c.05.14.2.21.33.17.13-.05.2-.2.15-.34l-.45-1.25c-.05-.14-.2-.21-.33-.17Z"/>
          <path class="st20" d="M269.74,111.03c-.15-.16-.28-.34-.31-.52-.02-.14.02-.26.07-.37.13-.3.3-.57.51-.81.2-.23.49-.44.9-.35.39.09.72.36.92.67.38.58.51.79.51,1.36,0,.71-.4,1.11-1.31.71-.47-.2-.96-.34-1.28-.69Z"/>
          <path class="st20" d="M270.74,109.39l-1.78-.74c-.12-.05-.18-.19-.13-.31.05-.12.19-.18.31-.13l1.78.74c.12.05.18.19.13.31-.05.12-.19.18-.31.13Z"/>
          <path class="st20" d="M270.32,109.91l-1.78-.74c-.12-.05-.18-.19-.13-.31.05-.12.19-.18.31-.13l1.78.74c.12.05.18.19.13.31-.05.12-.19.18-.31.13Z"/>
          <path class="st20" d="M270.29,110.67l-1.78-.74c-.12-.05-.18-.19-.13-.31.05-.12.19-.18.31-.13l1.78.74c.12.05.18.19.13.31-.05.12-.19.18-.31.13Z"/>
          <path class="st20" d="M270.52,111.36l-1.78-.74c-.12-.05-.18-.19-.13-.31.05-.12.19-.18.31-.13l1.78.74c.12.05.18.19.13.31-.05.12-.19.18-.31.13Z"/>
        </g>
      </g>
      <path class="st13" d="M290.74,113.23h2.63c-.04-.13-.08-.27-.14-.39-.24-.53-.65-.98-.85-1.52-.2-.53-.19-1.12-.22-1.7-.17-3.16-1.65-5.7-3.68-7.94-.26-.28-.73-.46-.99-.18-.2.23-.12.58-.03.88,1.1,3.62,2.19,7.24,3.29,10.86Z"/>
      <path class="st13" d="M291.68,113.23c-.9-4.44-.48-6.09-1.99-10.03-.87-2.26-3.24-3.6-5.83-3.54-.13,0-.27,0-.4.01-2.38.12-3.5-.92-7.02,2,0,0-1.58,1.85-1.61,3.28.44,3.08,2.53,5.51,3.89,8.28h12.96Z"/>
      <g>
        <path class="st13" d="M274.57,91.7c.05-.11.14-.2.18-.31.1-.25-.05-.52-.09-.79-.05-.26.16-.64.37-.52-.19-.35-.38-.79-.2-1.17.33-.71,1.48-.34,1.88-1.01.12-.2.14-.46.29-.64.2-.25.56-.23.81-.08.17.1.31.25.45.41.02,0,.05.01.07.02.21.02.3-.04.51-.15.39-.21.86.03,1.21.41.14.16.39-.19.55-.04.36.33.94.38,1.16.84.12.25.11.57.26.79.16.24.48.33.59.6.17.44-.12.96-.03,1.4.04.21-.09.45-.08.53.03.19,0,.37-.04.52.06.51.09,1.09.06,1.75-.02.46-.1.87-.25,1.2,0,0-.1.19-.17.33-.04.07-.07.13-.07.13-.05-.32-.13-.58-.21-.8.05-.31.04-.63-.03-.95,0,0,0,0,.01,0,.4-.13.6-.63.45-1.12-.15-.47-.57-.76-.95-.67l-.51.29c-1.8.24-1.84-1.74-3.48-1.54-1.07.13-1.64.5-1.9.75-.08.4-.08.82.01,1.24l.59-.19c.09-.03.19.02.22.12.03.09-.02.19-.11.22l-.6.19h-.02c-.09.04-.19-.02-.22-.11-.02-.06,0-.11.03-.15-.06-.05-.12-.12-.13-.2,0,0,0,.02-.01.02-.36-.15-.8-.88-.58-1.33Z"/>
        <path class="st20" d="M276.12,93.28l-.6.19.71,2.25c.47,1.49,1.7,2.34,3.11,2.03l.57,2.91c.06.29.19-.27.47-.32l2.08-.29c.28-.06.54.29.49,0l-.83-4.26c-.04.07-.07.13-.07.13-.05-.32-.13-.58-.21-.8.05-.31.04-.63-.03-.95,0,0,0,0,.01,0,.4-.13.6-.63.45-1.12-.15-.47-.57-.76-.95-.67l-.51.29c-1.8.24-1.84-1.74-3.48-1.54-1.07.13-1.64.5-1.9.75-.08.4-.08.82.01,1.24l.59-.19c.09-.03.19.02.22.12.03.09-.02.19-.11.22ZM278.44,93.21c-.05-.17,0-.33.1-.36.11-.03.23.07.28.24.05.17,0,.33-.1.36-.11.03-.23-.07-.28-.24ZM277.97,92.73c-.09.03-.19-.02-.22-.12-.03-.09.02-.19.11-.22l.63-.2c.09-.03.19.02.22.12.03.09-.02.19-.11.22l-.63.2ZM277.87,95.9l.95-.44c-.25.74-.95.44-.95.44ZM277.15,94.62v-.06c.06.12.18.21.33.21h.35c.12-.01.21-.1.24-.2l.02.03c.1.18-.02.4-.23.41h-.35c-.21.02-.38-.17-.36-.38ZM276.18,93.55c.11-.03.23.07.28.24.05.17,0,.33-.1.36-.11.03-.23-.07-.28-.24-.05-.17,0-.33.1-.36Z"/>
        <path class="st13" d="M277.75,92.61c-.03-.09.02-.19.11-.22l.63-.2c.09-.03.19.02.22.12.03.09-.02.19-.11.22l-.63.2c-.09.03-.19-.02-.22-.12Z"/>
        <path class="st13" d="M276.46,93.78c.05.17,0,.33-.1.36-.11.03-.23-.07-.28-.24-.05-.17,0-.33.1-.36s.23.07.28.24Z"/>
        <path class="st13" d="M278.54,92.85c.11-.03.23.07.28.24.05.17,0,.33-.1.36-.11.03-.23-.07-.28-.24-.05-.17,0-.33.1-.36Z"/>
        <path class="st36" d="M277.15,94.55c.06.12.18.21.32.21h.35c.12-.01.21-.1.24-.2l.02.03c.1.18-.02.4-.23.41h-.35c-.21.02-.38-.17-.36-.38v-.06Z"/>
        <path class="st23" d="M277.87,95.9l.95-.44c-.25.74-.95.44-.95.44Z"/>
      </g>
      <path class="st20" d="M280.64,99.55h1.67c.83,0,1.5.68,1.5,1.52s-.68,1.52-1.5,1.52h-1.67c-.83,0-1.5-.68-1.5-1.52s.68-1.52,1.5-1.52Z"/>
      <g>
        <path class="st20" d="M290.4,113.23c.11-.5.18-1.21.03-2.18v-.03s0-.03,0-.03c-.01-.79-.18-1.63-.34-2.33l-3.79.4c.43,1.05.47,1.18.79,2.01-2.83-.48-8.69-1.62-9.97-1.98l-.49,1.61c2.18.93,4.5,1.84,6.59,2.53h7.19Z"/>
        <path class="st13" d="M285.55,108.77c-.78-2.07-1.67-4.96-2.04-6.26l5.48-.12c.2.85,1.33,3.55,1.99,5.2.25.63-.16,1.33-.83,1.42l-3.53.43c-.47.06-.91-.22-1.08-.66Z"/>
        <path class="st66" d="M286.63,109.55s.09,0,.14,0l3.53-.43c.36-.04.67-.25.85-.56.18-.31.21-.68.07-1.02-.13-.32-.27-.67-.42-1.05-.31-.77-.67-1.64-.96-2.39-.02-.06-.09-.09-.16-.07-.06.02-.09.1-.07.16.29.75.65,1.62.96,2.39.15.37.3.73.42,1.05.11.27.09.56-.06.81-.14.25-.39.41-.67.44l-3.53.43c-.41.05-.8-.19-.95-.58-.48-1.28-.98-2.79-1.31-3.82-.02-.06-.09-.1-.15-.08-.06.02-.1.09-.08.15.33,1.04.82,2.55,1.31,3.84.17.45.6.75,1.07.75Z"/>
        <g>
          <path class="st20" d="M276.14,107.25c-.13.06-.19.21-.13.35l.53,1.22c.06.14.21.2.34.14.13-.06.19-.21.13-.35l-.53-1.22c-.06-.14-.21-.2-.34-.14Z"/>
          <path class="st20" d="M274.99,110.12c-.16-.15-.31-.32-.35-.5-.03-.13,0-.26.04-.38.11-.3.26-.59.46-.85.18-.24.46-.47.87-.41.4.06.74.31.96.6.42.56.56.76.6,1.33.04.71-.33,1.13-1.26.8-.48-.17-.98-.27-1.32-.6Z"/>
          <path class="st20" d="M275.89,108.42l-1.83-.63c-.12-.04-.19-.18-.15-.3.04-.12.18-.19.3-.15l1.83.63c.12.04.19.18.15.3-.04.12-.18.19-.3.15Z"/>
          <path class="st20" d="M275.5,108.96l-1.83-.63c-.12-.04-.19-.18-.15-.3.04-.12.18-.19.3-.15l1.83.63c.12.04.19.18.15.3-.04.12-.18.19-.3.15Z"/>
          <path class="st20" d="M275.52,109.72l-1.83-.63c-.12-.04-.19-.18-.15-.3.04-.12.18-.19.3-.15l1.83.63c.12.04.19.18.15.3-.04.12-.18.19-.3.15Z"/>
          <path class="st20" d="M275.79,110.4l-1.83-.63c-.12-.04-.19-.18-.15-.3.04-.12.18-.19.3-.15l1.83.63c.12.04.19.18.15.3-.04.12-.18.19-.3.15Z"/>
        </g>
      </g>
    </g>
    <g>
      <path class="st23" d="M250.82,88.03l-7.37.05c-.17,0-.31-.14-.31-.31s.14-.31.31-.31l7.37-.05c.17,0,.31.14.31.31s-.14.31-.31.31Z"/>
      <path class="st23" d="M253.19,88.01h-1.03c-.17,0-.31-.13-.31-.3s.14-.31.31-.31h1.03c.17,0,.31.13.31.3s-.14.31-.31.31Z"/>
      <path class="st23" d="M246.52,89.38l-3.06.02c-.17,0-.31-.14-.31-.31s.14-.31.31-.31l3.06-.02c.17,0,.31.14.31.31s-.14.31-.31.31Z"/>
      <path class="st23" d="M253.19,89.34l-5.31.04c-.17,0-.31-.14-.31-.31s.14-.31.31-.31l5.31-.04c.17,0,.31.14.31.31s-.14.31-.31.31Z"/>
      <path class="st23" d="M249.38,90.7l-5.9.04c-.17,0-.31-.14-.31-.31s.14-.31.31-.31l5.9-.04c.17,0,.31.14.31.31s-.14.31-.31.31Z"/>
    </g>
    <g>
      <path class="st23" d="M256.26,94.06l-4.96-.03c-.15,0-.27-.15-.27-.34,0-.19.12-.34.27-.34l4.96.03c.15,0,.27.15.27.34,0,.19-.12.34-.27.34Z"/>
      <path class="st23" d="M259.24,94.07h-1.71c-.15-.01-.27-.16-.27-.35,0-.19.12-.34.27-.34h1.71c.15.01.27.16.27.35,0,.19-.12.34-.27.34Z"/>
      <path class="st23" d="M254.26,95.29l4.96.03c.15,0,.27-.15.27-.34,0-.19-.12-.34-.27-.34l-4.96-.03c-.15,0-.27.15-.27.34,0,.19.12.34.27.34Z"/>
      <path class="st23" d="M251.42,96.54l7.55.04c.23,0,.41-.15.41-.34,0-.19-.18-.34-.41-.34l-7.55-.04c-.23,0-.41.15-.41.34,0,.19.18.34.41.34Z"/>
      <path class="st23" d="M251.29,95.27h1.71c.15.01.27-.14.27-.33,0-.19-.12-.34-.27-.34h-1.71c-.15-.01-.27.14-.27.33,0,.19.12.34.27.34Z"/>
    </g>
    <g>
      <path class="st23" d="M256.2,108.54l-4.96-.03c-.15,0-.27-.15-.27-.34,0-.19.12-.34.27-.34l4.96.03c.15,0,.27.15.27.34,0,.19-.12.34-.27.34Z"/>
      <path class="st23" d="M259.17,108.56h-1.71c-.15-.01-.27-.16-.27-.35,0-.19.12-.34.27-.34h1.71c.15.01.27.16.27.35,0,.19-.12.34-.27.34Z"/>
      <path class="st23" d="M254.2,109.77l4.96.03c.15,0,.27-.15.27-.34,0-.19-.12-.34-.27-.34l-4.96-.03c-.15,0-.27.15-.27.34,0,.19.12.34.27.34Z"/>
      <path class="st23" d="M251.35,111.02l7.55.04c.23,0,.41-.15.41-.34,0-.19-.18-.34-.41-.34l-7.55-.04c-.23,0-.41.15-.41.34,0,.19.18.34.41.34Z"/>
      <path class="st23" d="M251.22,109.76h1.71c.15.01.27-.14.27-.33,0-.19-.12-.34-.27-.34h-1.71c-.15-.01-.27.14-.27.33,0,.19.12.34.27.34Z"/>
    </g>
    <g>
      <path class="st23" d="M246.57,102.08l4.96.03c.15,0,.27-.15.27-.34,0-.19-.12-.34-.27-.34l-4.96-.03c-.15,0-.27.15-.27.34,0,.19.12.34.27.34Z"/>
      <path class="st23" d="M243.72,103.33l7.55.04c.23,0,.41-.15.41-.34,0-.19-.18-.34-.41-.34l-7.55-.04c-.23,0-.41.15-.41.34,0,.19.18.34.41.34Z"/>
      <path class="st23" d="M243.59,102.06h1.71c.15.01.27-.14.27-.33,0-.19-.12-.34-.27-.34h-1.71c-.15-.01-.27.14-.27.33,0,.19.12.34.27.34Z"/>
    </g>
    <path class="st23" d="M256.23,97.74l-4.96-.03c-.15,0-.27-.15-.27-.34,0-.19.12-.34.27-.34l4.96.03c.15,0,.27.15.27.34,0,.19-.12.34-.27.34Z"/>
    <path class="st20" d="M285.89,156.44h7.08c-1.31-3.27-5.77-3.03-5.77-3.03l-1.31,3.03Z"/>
    <g>
      <path class="st20" d="M248.16,126.42s.01,0,.02,0c.07-.02.13-.04.2-.07,3.46-1.06,4.56-3.91,4.88-5.18.03-.05.06-.1.1-.15-.36-.34-.64-.86-.73-1.47-.16-1.12.36-2.08,1.17-2.14.3-.03.6.08.87.28.19.14.35.33.49.55.17-.05.2-.57.2-.71.01-.33-.05-.67-.05-1,0-.48.25-1.08.5-1.66l.66,5.15c.17,1.8-.61,3.47-1.83,4.67-.57.56-1.24,1.01-1.96,1.32-.34.72-.61,1.47-.82,2.24-.21.75-.6,1.81-1.3,2.71-.24.32-.45-.34-.84-.3-1.54.18-3.16-.36-4.29-1.44-.09-.08-.18-.18-.19-.31,0-.12.07-.23.14-.33.47-.63.71-1.24,1.04-1.95.09-.19.17-.44.24-.7.28.14.53.37.83.47.22.08.44.07.66.02Z"/>
      <path class="st13" d="M242.99,122.23c.02.09.06.17.08.27.14.91-.26,1.98.33,2.68.37.44,1,.54,1.57.54.57,0,1.17-.04,1.69.21,0,0,.01,0,.02.01.28.14.53.37.83.47.22.08.44.07.66.02,0,0,.01,0,.02,0,.07-.02.13-.04.2-.07,3.46-1.06,4.56-3.91,4.88-5.18.03-.05.06-.1.1-.15-.36-.34-.64-.86-.73-1.47-.16-1.12.36-2.08,1.17-2.14.3-.03.6.08.87.28.19.14.35.33.49.55.17-.05.2-.57.2-.71.01-.33-.05-.67-.05-1,0-.48.25-1.08.5-1.66.21-.5.43-.98.52-1.38.24-1.16.03-2.87-.62-3.87-.65-.99-2.15-.78-3.32-.94-.42-.06-.86-.05-1.24-.23-.34-.16-.59-.45-.91-.64-.62-.38-1.41-.36-2.1-.15-.03.01-.06.03-.1.04-.65.22-1.25.57-1.86.88-.98.5-2.03.89-2.9,1.57-.33.26-.63.57-.87.92-.34.5-.56,1.06-.56,1.65-.13.1-.25.21-.36.33-.66.73-1.06,1.69-1.15,2.67-.02.2-.02.41-.01.61.05,1.36.61,2.69,1.41,3.8.48.66,1.04,1.3,1.25,2.07h0Z"/>
    </g>
    <path class="st23" d="M258.89,150.3s-6.04-6.92-7.27-9.89c0,0-1.63-3.94-1.63-3.94-2.41-5.78,8.1-5.64,10.52.17,1.12,2.7,2.69,5.58,4.24,7.93l.05-.04.9.97c3.93,4.26,14.25,5.23,20.57,5.64.78.05,1.35.74,1.27,1.53l-.25,2.53c-.07.73-.69,1.28-1.41,1.26-22.1-.59-22.85-2.82-27-6.16Z"/>
    <path class="st23" d="M229.15,179.27h25.44c.81-.88,1.43-1.85,1.74-2.85.96-3.05,1.81-6.35,1.34-8.31-4.83-20.03,1.67-15.03,4.04-25.39.57-2.48-4.01-14.53-7.45-14.57-3.74-.05-12.13.3-15.58,3.07-2.32,1.86-7.06,10.05-10.1,17-4.1,9.61,7.85,8.96-1.37,24.75-1.39,2.38-.31,5.27,1.94,6.31Z"/>
    <path class="st87" d="M285.89,156.65c-19.34-.52-22.4-2.27-25.79-5.1-.94-.78-1.8-1.63-2.55-2.53-1.01-1.21-2.48-3.01-3.75-4.74l.32-.24c1.26,1.72,2.72,3.52,3.73,4.72.73.88,1.57,1.71,2.5,2.48,3.33,2.77,6.34,4.49,25.55,5.01v.4Z"/>
    <g>
      <path class="st17" d="M247.16,95.56c.1-.06.25-.05.35-.1.22-.11.12-.39.21-.58.12-.26.6-.34.96-.29.19.03.31.06.34.2.02.11.01.11.1.21.06.07.11.11.14.19.09.22.06.45-.09.62-.07.08-.17.15-.25.23.03.02.06.04.09.06.11.06.23.16.31.29,0,0,.11.35.11.35.39-.29.64-.75.65-1.27.01-.87-.67-1.57-1.51-1.57s-1.54.7-1.56,1.57c0,.1,0,.19.02.28,0-.08.04-.16.12-.21Z"/>
      <path class="st44" d="M249.33,96.4c-.08-.13-.19-.23-.31-.29l-.02.87c.16-.05.31-.13.44-.23l-.11-.35s0,0,0,0Z"/>
      <path class="st34" d="M247.63,96.74l.08-.23s0-.06.02-.09c0-.02.02-.03.03-.05.19-.21.44-.33.52-.36.06-.02.13-.04.21-.05,0-.01,0-.02,0-.03v-.28c-.05-.05-.08-.14-.08-.23v-.02s-.08-.04-.08-.09c0-.05.03-.09.07-.09,0,0,0-.04,0-.04,0-.09.04-.18.09-.23l.36.23v.07s.07.04.07.09c0,.05-.03.09-.07.09,0,.09-.04.16-.09.21v.28s0,.01,0,.02c.02.01.04.03.05.04.04.01.08.03.12.05.08-.08.17-.15.25-.23.15-.17.18-.4.09-.62-.03-.08-.08-.12-.14-.19-.09-.1-.08-.1-.1-.21-.03-.14-.15-.17-.34-.2-.36-.05-.84.02-.96.29-.09.19,0,.47-.21.58-.1.05-.25.04-.35.1-.08.04-.11.12-.12.21.07.4.28.75.59.98Z"/>
      <path class="st44" d="M247.77,96.37s-.02.03-.03.05c-.01.03-.02.06-.02.09l-.08.23c.19.14.41.24.65.28v-1.02c-.07.03-.32.15-.52.36Z"/>
      <path class="st23" d="M248.93,96.04s-.08-.04-.12-.05c.02.02.02.05,0,.08-.06.1-.03.05-.13.2-.01.02-.04.03-.06.03-.02,0-.04,0-.06-.03-.1-.15-.07-.11-.12-.2-.02-.04,0-.08.04-.11-.07,0-.14.03-.2.05,0,0,0,1.02,0,1.02.08.01.17.02.25.02.16,0,.32-.03.47-.07l.02-.87s-.06-.05-.09-.06Z"/>
      <path class="st14" d="M248.46,96.07c.05.1.03.05.12.2.01.02.03.03.06.03.02,0,.04,0,.06-.03.1-.15.07-.11.13-.2.02-.03.01-.06,0-.08-.01-.02-.03-.03-.05-.04,0,0,0,0,0-.02v-.28c.06-.05.09-.13.1-.21.04,0,.07-.04.07-.09,0-.05-.03-.09-.07-.09v-.07s-.36-.23-.36-.23c-.05.05-.09.14-.09.23v.04s-.08.04-.08.09c0,.05.03.09.07.09,0,0,0,.01,0,.01,0,.09.03.18.08.23v.28s0,.01,0,.02c-.04.03-.07.07-.05.12Z"/>
    </g>
    <path class="st50" d="M269.12,87.49c0,.33-.26.59-.58.59s-.58-.26-.58-.59.26-.59.58-.59.58.26.58.59Z"/>
    <path class="st64" d="M270.6,87.49c0,.33-.26.59-.58.59s-.58-.26-.58-.59.26-.59.58-.59.58.26.58.59Z"/>
    <ellipse class="st50" cx="317.26" cy="86.99" rx=".58" ry=".59"/>
    <ellipse class="st64" cx="318.74" cy="86.99" rx=".58" ry=".59"/>
    <path class="st50" d="M269.38,115.9c0,.33-.26.59-.58.59s-.58-.26-.58-.59.26-.59.58-.59.58.26.58.59Z"/>
    <path class="st64" d="M270.86,115.9c0,.33-.26.59-.58.59s-.58-.26-.58-.59.26-.59.58-.59.58.26.58.59Z"/>
    <ellipse class="st50" cx="317.52" cy="115.4" rx=".58" ry=".59"/>
    <ellipse class="st64" cx="319" cy="115.4" rx=".58" ry=".59"/>
    <polygon class="st23" points="211.51 95.21 216.21 91.61 215.99 91.31 211.44 94.78 206.53 93.1 206.41 93.46 211.51 95.21"/>
    <g>
      <g>
        <path class="st17" d="M242.18,89.84s.05-.07.06-.11c0,0,0-.01.01-.02.02-.03.04-.07.05-.11,0,0,0-.02,0-.02.02-.04.03-.08.04-.12.01-.04.02-.08.03-.12,0,0,0-.02,0-.02,0-.04.01-.08.02-.12,0,0,0-.02,0-.02,0-.04,0-.09,0-.13,0-.05,0-.09,0-.14,0-.02,0-.03,0-.05,0-.02,0-.05,0-.07-.11-.66-.67-1.16-1.35-1.16-.31,0-.59.1-.82.27-.02.01-.04.03-.06.05-.04.03-.06.06-.09.08,0,0-.01.01-.02.02-.03.03-.05.06-.08.09,0,0-.01.01-.02.02-.02.03-.05.06-.07.1-.03.04-.05.07-.06.11,0,0,0,.01-.01.02-.02.03-.04.07-.05.11,0,0,0,.02,0,.02-.02.04-.03.08-.04.12-.01.04-.02.08-.03.12,0,0,0,.02,0,.02,0,.04-.01.08-.02.12,0,0,0,.02,0,.02,0,.04,0,.09,0,.13,0,.05,0,.09,0,.14,0,.02,0,.03,0,.05,0,.02,0,.05,0,.07.11.66.67,1.16,1.35,1.16.31,0,.59-.1.82-.27.02-.01.04-.03.06-.05.04-.03.06-.06.09-.08,0,0,.01-.01.02-.02.03-.03.05-.06.08-.09,0,0,.01-.01.02-.02.02-.03.05-.06.07-.1Z"/>
        <path class="st44" d="M241.74,89.87c-.07-.12-.18-.21-.28-.26l-.02.79c.14-.05.28-.12.4-.21l-.1-.32s0,0,0,0Z"/>
        <path class="st44" d="M240.32,89.85s-.02.03-.03.04c-.01.03-.02.06-.02.09l-.07.21c.17.13.37.22.59.25v-.92c-.07.02-.29.13-.47.32Z"/>
        <path class="st23" d="M241.38,89.55s-.07-.04-.11-.05c.01.02.02.05,0,.07-.05.09-.03.05-.12.18-.01.02-.03.03-.05.03-.02,0-.04,0-.05-.03-.09-.14-.06-.1-.11-.18-.02-.04,0-.07.03-.1-.07,0-.13.03-.18.05,0,0,0,.92,0,.92.07.01.15.02.23.02.15,0,.29-.02.42-.07l.02-.79s-.06-.04-.09-.06Z"/>
      </g>
      <g>
        <path class="st34" d="M240.89,88.98s-.06-.04-.06-.08c0-.05.03-.08.07-.08v-.04c0-.08.03-.16.08-.21l.32.21v.07s.06.04.06.08c0,.05-.03.08-.06.08,0,.04-.01.07-.03.1.14-.07.23-.21.23-.39,0-.23-.18-.42-.39-.42s-.39.19-.39.42c0,.15.07.28.19.36,0-.03-.01-.06-.01-.09,0,0,0-.01,0-.01Z"/>
        <path class="st14" d="M241.3,88.84v-.07s-.32-.21-.32-.21c-.05.05-.08.12-.08.21v.04s-.07.04-.07.08c0,.05.03.08.06.08,0,0,0,.01,0,.01,0,.03,0,.06.01.09.01.05.03.09.06.12v.25s0,.01,0,.02c-.04.03-.06.07-.04.11.05.09.02.05.11.18.01.02.03.03.05.03.02,0,.04,0,.05-.03.09-.14.06-.1.12-.18.01-.03.01-.05,0-.07-.01-.02-.03-.03-.04-.04,0,0,0,0,0-.01v-.25s.05-.05.06-.09c.01-.03.02-.07.03-.1.04,0,.06-.04.06-.08,0-.05-.03-.08-.06-.08Z"/>
      </g>
    </g>
    <g>
      <g>
        <g>
          <path class="st17" d="M242.25,103.18s.05-.07.06-.11c0,0,0-.01.01-.02.02-.03.04-.07.05-.11,0,0,0-.02,0-.02.02-.04.03-.08.04-.12.01-.04.02-.08.03-.12,0,0,0-.02,0-.02,0-.04.01-.08.02-.12,0,0,0-.02,0-.02,0-.04,0-.09,0-.13,0-.05,0-.09,0-.14,0-.02,0-.03,0-.05,0-.02,0-.05,0-.07-.11-.66-.67-1.16-1.35-1.16-.31,0-.59.1-.82.27-.02.01-.04.03-.06.05-.04.03-.06.06-.09.08,0,0-.01.01-.02.02-.03.03-.05.06-.08.09,0,0-.01.01-.02.02-.02.03-.05.06-.07.1-.03.04-.05.07-.06.11,0,0,0,.01-.01.02-.02.03-.04.07-.05.11,0,0,0,.02,0,.02-.02.04-.03.08-.04.12-.01.04-.02.08-.03.12,0,0,0,.02,0,.02,0,.04-.01.08-.02.12,0,0,0,.02,0,.02,0,.04,0,.09,0,.13,0,.05,0,.09,0,.14,0,.02,0,.03,0,.05,0,.02,0,.05,0,.07.11.66.67,1.16,1.35,1.16.31,0,.59-.1.82-.27.02-.01.04-.03.06-.05.04-.03.06-.06.09-.08,0,0,.01-.01.02-.02.03-.03.05-.06.08-.09,0,0,.01-.01.02-.02.02-.03.05-.06.07-.1Z"/>
          <path class="st44" d="M241.81,103.22c-.07-.12-.18-.21-.28-.26l-.02.79c.14-.05.28-.12.4-.21l-.1-.32s0,0,0,0Z"/>
          <path class="st44" d="M240.4,103.19s-.02.03-.03.04c-.01.03-.02.06-.02.09l-.07.21c.17.13.37.22.59.25v-.92c-.07.02-.29.13-.47.32Z"/>
          <path class="st23" d="M241.45,102.89s-.07-.04-.11-.05c.01.02.02.05,0,.07-.05.09-.03.05-.12.18-.01.02-.03.03-.05.03-.02,0-.04,0-.05-.03-.09-.14-.06-.1-.11-.18-.02-.04,0-.07.03-.1-.07,0-.13.03-.18.05,0,0,0,.92,0,.92.07.01.15.02.23.02.15,0,.29-.02.42-.07l.02-.79s-.06-.04-.09-.06Z"/>
        </g>
        <g>
          <path class="st34" d="M240.96,102.32s-.06-.04-.06-.08c0-.05.03-.08.07-.08v-.04c0-.08.03-.16.08-.21l.32.21v.07s.06.04.06.08c0,.05-.03.08-.06.08,0,.04-.01.07-.03.1.14-.07.23-.21.23-.39,0-.23-.18-.42-.39-.42s-.39.19-.39.42c0,.15.07.28.19.36,0-.03-.01-.06-.01-.09,0,0,0-.01,0-.01Z"/>
          <path class="st14" d="M241.38,102.18v-.07s-.32-.21-.32-.21c-.05.05-.08.12-.08.21v.04s-.07.04-.07.08c0,.05.03.08.06.08,0,0,0,.01,0,.01,0,.03,0,.06.01.09.01.05.03.09.06.12v.25s0,.01,0,.02c-.04.03-.06.07-.04.11.05.09.02.05.11.18.01.02.03.03.05.03.02,0,.04,0,.05-.03.09-.14.06-.1.12-.18.01-.03.01-.05,0-.07-.01-.02-.03-.03-.04-.04,0,0,0,0,0-.01v-.25s.05-.05.06-.09c.01-.03.02-.07.03-.1.04,0,.06-.04.06-.08,0-.05-.03-.08-.06-.08Z"/>
        </g>
      </g>
      <path class="st34" d="M241.17,102.66c-.08,0-.15-.07-.15-.15v-.04c0-.08.07-.15.15-.15s.15.07.15.15v.04c0,.08-.07.15-.15.15Z"/>
    </g>
    <path class="st13" d="M223.14,179.27h1.6l-1.13-7.92c-.06-.44-.46-.75-.9-.68-.43.06-.73.47-.67.91l1.1,7.69Z"/>
    <path class="st13" d="M243.02,179.27h1.6l-1.14-7.97c-.06-.44-.46-.75-.9-.68-.43.06-.73.47-.67.91l1.1,7.74Z"/>
    <g>
      <path class="st88" d="M220.96,173.26h27.94c2.62,0,4.65-2.31,4.35-4.94l-3.17-27.6c-.34-2.94-2.79-5.34-5.45-5.34h-26.25c-2.66,0-4.56,2.41-4.23,5.34l3.38,29.45c.2,1.76,1.68,3.1,3.43,3.1Z"/>
      <path class="st23" d="M219.77,173.26h26.83c2.41,0,4.29-2.13,4.01-4.56l-3.21-27.99c-.34-2.94-2.79-5.34-5.45-5.34h-26.25c-2.66,0-4.56,2.41-4.23,5.34l3.21,27.96c.3,2.62,2.49,4.59,5.09,4.59Z"/>
    </g>
    <path class="st23" d="M330.35,158.55s0,0-.01,0c-.59-.04-1.18-.12-1.75-.26-.13-.03-.21-.17-.18-.3.03-.13.16-.22.3-.19.54.13,1.1.21,1.66.24.14,0,.24.13.23.26,0,.13-.12.23-.25.23ZM332.07,158.51c-.12,0-.23-.1-.24-.22-.01-.14.08-.26.22-.27.55-.06,1.11-.16,1.66-.3.13-.03.27.05.3.18.03.13-.05.27-.18.3-.58.15-1.16.25-1.73.31,0,0-.02,0-.03,0ZM327.01,157.75s-.07,0-.1-.02c-.49-.22-1-.48-1.56-.81-.12-.07-.16-.22-.09-.34.07-.12.22-.16.34-.09.54.32,1.03.58,1.5.79.12.05.18.2.13.33-.04.09-.13.15-.23.15ZM335.4,157.66c-.1,0-.19-.06-.23-.16-.05-.13.01-.27.14-.32.52-.21,1.03-.46,1.53-.74.12-.07.27-.02.33.1.07.12.02.27-.1.34-.52.29-1.05.55-1.58.76-.03.01-.06.02-.09.02ZM324.03,156.01s-.09-.01-.14-.04c-.24-.16-.48-.33-.72-.49-.24-.16-.47-.33-.71-.49-.11-.08-.14-.23-.07-.35.08-.11.23-.15.34-.07.24.16.48.32.71.49.24.16.48.33.72.49.11.08.14.23.07.35-.05.07-.13.11-.2.11ZM338.41,155.98c-.08,0-.15-.04-.2-.1-.08-.11-.05-.27.06-.35.46-.33.9-.69,1.32-1.08.1-.09.26-.08.35.02.09.1.08.26-.02.35-.43.4-.89.77-1.36,1.11-.04.03-.09.05-.14.05ZM321.14,154.1s-.09-.01-.12-.03c-.54-.32-1.04-.58-1.51-.78-.13-.05-.18-.2-.13-.33.05-.13.2-.19.32-.13.49.21,1,.47,1.56.81.12.07.16.22.09.34-.05.08-.13.12-.21.12ZM340.97,153.64c-.06,0-.12-.02-.16-.06-.1-.09-.11-.25-.02-.35.37-.43.73-.88,1.05-1.35.08-.11.23-.14.34-.06.11.08.14.23.06.35-.33.48-.7.95-1.08,1.39-.05.06-.12.08-.18.08ZM317.96,152.81s-.03,0-.04,0c-.55-.1-1.1-.11-1.64-.05-.14.02-.26-.08-.27-.22-.02-.14.08-.26.21-.28.59-.07,1.19-.06,1.79.05.13.02.22.15.2.29-.02.12-.12.21-.24.21ZM342.94,150.79s-.08,0-.12-.03c-.12-.07-.16-.22-.1-.34.27-.49.52-1.01.75-1.54.05-.13.2-.18.32-.13.12.06.18.2.13.33-.24.54-.5,1.08-.77,1.58-.04.08-.13.13-.22.13ZM344.33,147.6s-.05,0-.08-.01c-.13-.04-.2-.19-.15-.32.18-.53.35-1.09.49-1.65.03-.13.17-.21.3-.18.13.03.21.17.18.3-.15.57-.32,1.14-.5,1.69-.04.1-.13.17-.23.17ZM345.19,144.22s-.03,0-.05,0c-.13-.03-.22-.16-.2-.29.1-.55.19-1.13.26-1.71.02-.14.14-.23.27-.22.13.02.23.14.22.28-.07.59-.16,1.17-.26,1.74-.02.12-.13.2-.24.2ZM345.61,140.76s-.01,0-.02,0c-.14,0-.24-.13-.23-.26.03-.56.05-1.15.06-1.73,0-.14.11-.25.25-.25.14,0,.25.11.25.25,0,.59-.03,1.18-.06,1.76,0,.13-.12.23-.25.23ZM345.64,137.28c-.13,0-.24-.11-.25-.24-.02-.57-.06-1.15-.11-1.73-.01-.14.09-.26.22-.27.14-.01.25.09.27.23.05.59.09,1.18.11,1.75,0,.14-.1.25-.24.26,0,0,0,0-.01,0ZM345.35,133.8c-.12,0-.23-.09-.24-.22-.02-.19-.05-.39-.08-.58-.05-.38-.11-.76-.17-1.14-.02-.14.07-.26.2-.29.14-.02.26.07.28.21.06.38.12.76.17,1.15.03.2.05.39.08.59.02.14-.08.26-.21.28-.01,0-.02,0-.03,0ZM344.8,130.36c-.12,0-.22-.08-.24-.2-.11-.55-.22-1.12-.35-1.7-.03-.13.06-.27.19-.3.13-.03.26.06.29.19.13.58.24,1.16.35,1.71.03.14-.06.27-.2.29-.02,0-.03,0-.05,0ZM344.06,126.95c-.11,0-.21-.08-.24-.19-.13-.56-.27-1.13-.41-1.69-.03-.13.05-.27.18-.3.13-.03.27.05.3.18.14.56.28,1.13.41,1.7.03.13-.05.27-.18.3-.02,0-.04,0-.06,0ZM343.23,123.56c-.11,0-.21-.07-.24-.19-.15-.56-.29-1.12-.44-1.69-.03-.13.04-.27.18-.3.13-.03.27.04.3.18.15.56.29,1.12.44,1.69.03.13-.04.27-.18.3-.02,0-.04,0-.06,0ZM342.35,120.19c-.11,0-.21-.07-.24-.19-.15-.56-.29-1.13-.43-1.69-.03-.13.05-.27.18-.3.13-.03.27.05.3.18.14.56.28,1.13.43,1.69.03.13-.04.27-.18.3-.02,0-.04,0-.06,0ZM341.5,116.81c-.11,0-.21-.08-.24-.19-.13-.57-.26-1.13-.39-1.7-.03-.13.05-.27.19-.3.13-.03.26.06.29.19.12.57.25,1.13.39,1.7.03.13-.05.27-.18.3-.02,0-.04,0-.06,0ZM340.76,113.4c-.11,0-.22-.08-.24-.2-.12-.58-.23-1.15-.33-1.72-.02-.14.06-.27.2-.29.14-.03.26.06.29.2.1.56.21,1.13.33,1.71.03.13-.06.27-.19.29-.02,0-.03,0-.05,0ZM340.13,109.97c-.12,0-.22-.09-.24-.21-.1-.58-.19-1.17-.27-1.73-.02-.14.07-.26.21-.28.14-.02.26.07.28.21.08.56.17,1.14.27,1.72.02.14-.07.26-.2.29-.01,0-.03,0-.04,0ZM339.63,106.52c-.12,0-.23-.09-.24-.22-.07-.59-.13-1.17-.19-1.74-.01-.14.09-.26.22-.27.14-.01.26.09.27.22.05.57.12,1.15.19,1.73.02.14-.08.26-.21.28-.01,0-.02,0-.03,0ZM339.3,103.04c-.13,0-.24-.1-.25-.23-.04-.58-.08-1.17-.1-1.75,0-.14.1-.25.23-.26.13,0,.25.1.26.24.03.57.06,1.15.1,1.73,0,.14-.09.26-.23.27,0,0-.01,0-.02,0ZM339.14,99.56c-.13,0-.24-.11-.25-.24,0-.37,0-.74,0-1.11,0-.21,0-.43,0-.64,0-.14.11-.25.25-.25.14,0,.25.11.25.25,0,.21,0,.42,0,.63,0,.37,0,.74,0,1.1,0,.14-.11.25-.24.25h0ZM339.18,96.07c-.15,0-.25-.12-.25-.26.02-.58.05-1.16.09-1.75,0-.14.13-.24.26-.23.14,0,.24.13.23.26-.04.58-.07,1.16-.09,1.74,0,.13-.11.24-.25.24ZM339.4,92.59s-.01,0-.02,0c-.14-.01-.24-.13-.22-.27.05-.58.11-1.16.18-1.74.02-.14.14-.24.27-.22.13.02.23.14.22.28-.07.58-.13,1.16-.18,1.73-.01.13-.12.23-.25.23ZM339.79,89.13s-.02,0-.03,0c-.13-.02-.23-.14-.21-.28.08-.57.16-1.15.26-1.73.02-.14.15-.23.28-.21.13.02.23.15.2.29-.09.57-.18,1.15-.26,1.72-.02.12-.12.21-.24.21ZM340.34,85.68s-.03,0-.04,0c-.13-.02-.22-.15-.2-.29.03-.19.07-.38.1-.56l.2-1.15c.02-.14.15-.23.29-.2.13.02.22.15.2.29l-.2,1.15c-.04.19-.07.38-.1.56-.02.12-.13.2-.24.2ZM340.92,82.24s-.02,0-.04,0c-.13-.02-.23-.15-.21-.28.1-.66.17-1.2.24-1.72.02-.14.14-.23.28-.22.13.02.23.14.21.28-.06.52-.14,1.07-.24,1.73-.02.12-.12.21-.24.21ZM341.34,78.78s-.01,0-.02,0c-.14-.01-.24-.13-.23-.27.05-.61.07-1.18.08-1.73,0-.14.11-.25.25-.25.14,0,.25.11.24.25,0,.56-.03,1.14-.08,1.76-.01.13-.12.23-.25.23ZM341.37,75.29c-.13,0-.24-.1-.25-.23-.05-.59-.12-1.16-.23-1.7-.03-.14.06-.27.19-.29.13-.03.26.06.29.2.11.56.19,1.15.23,1.76.01.14-.09.26-.23.27,0,0-.01,0-.02,0ZM340.7,71.88c-.1,0-.2-.07-.23-.17-.18-.53-.4-1.06-.65-1.57-.06-.12-.01-.27.11-.33.12-.06.27-.01.33.11.27.53.49,1.08.68,1.64.04.13-.03.27-.15.32-.03,0-.05.01-.08.01ZM339.16,68.77c-.08,0-.16-.04-.2-.11-.31-.46-.66-.92-1.04-1.36-.09-.1-.08-.26.02-.35.1-.09.26-.08.35.02.39.45.75.92,1.07,1.4.08.11.05.27-.07.35-.04.03-.09.04-.14.04ZM336.9,66.14c-.06,0-.12-.02-.17-.07-.41-.38-.85-.75-1.31-1.09-.11-.08-.13-.24-.05-.35.08-.11.24-.13.34-.05.47.35.92.73,1.35,1.13.1.09.11.25.01.35-.05.05-.11.08-.18.08ZM289.32,64.89c-.09,0-.18-.05-.22-.15-.06-.13,0-.27.12-.33.42-.19.86-.39,1.29-.57.13-.05.27,0,.32.13.05.13,0,.27-.13.33-.43.18-.86.37-1.28.57-.03.01-.07.02-.1.02ZM334.14,64.07s-.09-.01-.13-.04c-.48-.29-.98-.56-1.5-.82-.12-.06-.17-.21-.11-.33.06-.12.21-.18.33-.11.53.26,1.05.54,1.53.84.12.07.15.22.08.34-.05.08-.13.12-.21.12ZM292.21,63.67c-.1,0-.19-.06-.23-.16-.05-.13.01-.27.14-.32.54-.21,1.08-.42,1.62-.61.13-.05.27.02.31.15.05.13-.02.27-.15.32-.54.19-1.08.4-1.61.6-.03.01-.06.02-.09.02ZM331.04,62.53s-.06,0-.09-.02c-.51-.21-1.05-.4-1.61-.58-.13-.04-.2-.18-.16-.31.04-.13.18-.2.31-.16.57.19,1.12.39,1.64.59.13.05.19.2.14.32-.04.1-.13.16-.23.16ZM295.46,62.5c-.1,0-.2-.07-.23-.17-.04-.13.03-.27.16-.31.55-.18,1.1-.35,1.66-.51.13-.04.27.04.31.17.04.13-.04.27-.17.31-.55.16-1.1.33-1.64.51-.03,0-.05.01-.08.01ZM298.77,61.53c-.11,0-.21-.07-.24-.19-.03-.13.05-.27.18-.3.56-.15,1.12-.28,1.68-.41.13-.03.26.05.29.19.03.13-.05.27-.19.3-.56.13-1.12.27-1.67.41-.02,0-.04,0-.06,0ZM327.77,61.45s-.04,0-.06,0c-.53-.14-1.09-.28-1.66-.41-.13-.03-.22-.16-.19-.3.03-.13.16-.22.29-.19.58.13,1.15.27,1.68.42.13.04.21.17.17.31-.03.11-.13.19-.24.19ZM302.13,60.76c-.12,0-.22-.08-.24-.2-.03-.14.06-.27.19-.29.56-.11,1.14-.22,1.7-.31.13-.02.26.07.28.21.02.14-.07.26-.2.29-.56.09-1.13.2-1.69.31-.02,0-.03,0-.05,0ZM324.4,60.69s-.03,0-.05,0c-.56-.11-1.13-.21-1.69-.3-.13-.02-.23-.15-.2-.29.02-.14.15-.23.28-.21.57.09,1.14.19,1.71.3.13.03.22.16.2.29-.02.12-.13.2-.24.2ZM305.53,60.19c-.12,0-.23-.09-.24-.22-.02-.14.08-.26.21-.28.57-.08,1.15-.15,1.72-.21.14-.01.26.08.27.22.01.14-.08.26-.22.27-.57.06-1.14.13-1.7.21-.01,0-.02,0-.03,0ZM321,60.14s-.02,0-.03,0c-.56-.07-1.14-.14-1.71-.2-.14-.01-.23-.14-.22-.27.01-.14.13-.24.27-.22.57.06,1.15.12,1.72.2.13.02.23.14.21.28-.02.13-.12.22-.24.22ZM308.96,59.82c-.13,0-.24-.1-.25-.23-.01-.14.09-.26.23-.27.57-.04,1.15-.08,1.73-.11.14,0,.25.1.26.24,0,.14-.1.25-.23.26-.57.03-1.15.06-1.71.11,0,0-.01,0-.02,0ZM317.57,59.8s-.01,0-.02,0c-.57-.04-1.14-.07-1.71-.1-.14,0-.24-.12-.24-.26,0-.14.12-.25.26-.24.57.02,1.16.06,1.73.1.14,0,.24.13.23.27,0,.13-.12.23-.25.23ZM312.4,59.66c-.13,0-.24-.11-.25-.24,0-.14.11-.25.24-.25.58-.01,1.15-.01,1.73,0,.14,0,.24.11.24.25,0,.14-.11.25-.25.25-.57,0-1.14,0-1.72,0h0Z"/>
  </g>
  <g>
    <g>
      <path class="st37" d="M103.73,127.28l-20.34-4.17c.07-.06.12-.12.2-.17l27.74-14.82c.08-.04.16-.05.24-.07l-7.84,19.23Z"/>
      <path class="st37" d="M82.99,124.87c-.07-.13-.1-.27-.13-.41l14.42,2.95-4.68,15.32c-.08-.09-.16-.16-.22-.27l-9.39-17.58Z"/>
      <path class="st37" d="M112.98,108.37c.1.1.21.2.28.33l9.39,17.58c.06.11.07.23.1.34l-15.34-4.62,5.56-13.64Z"/>
      <path class="st37" d="M98.7,127.7l5.32,1.09c.17.04.34,0,.48-.07.14-.08.26-.2.32-.36l2.05-5.02,15.46,4.66c-.09.08-.16.17-.27.23l-27.74,14.82c-.11.06-.23.08-.34.1l4.72-15.44Z"/>
    </g>
    <path class="st35" d="M166.99,123.1c0,14.96-12.36,27.09-27.6,27.09s-27.6-12.13-27.6-27.09,12.35-27.11,27.6-27.11,27.6,12.13,27.6,27.11Z"/>
    <g>
      <path class="st23" d="M157.05,132.04h-35.32v-19.34c0-.59.48-1.07,1.07-1.07h33.17c.59,0,1.07.48,1.07,1.07v19.34ZM122.98,130.8h32.83v-17.92h-32.83v17.92Z"/>
      <path class="st23" d="M158.5,132.01h-15.02c0,.71-.57,1.28-1.28,1.28h-5.61c-.71,0-1.28-.57-1.28-1.28h-15.02c-.33,0-.59.3-.55.63l.11.8c.09.65.64,1.13,1.29,1.13h36.48c.65,0,1.2-.48,1.29-1.13l.11-.8c.05-.33-.21-.63-.55-.63Z"/>
      <path class="st23" d="M144.11,119.33l3.28,8.54c.06.15.28.15.33-.01l1.18-3.85c.02-.06.06-.1.12-.12l3.85-1.18c.16-.05.17-.27.01-.33l-8.54-3.28c-.14-.05-.28.08-.23.23Z"/>
      <rect class="st23" x="149.18" y="122.94" width="1.66" height="4.15" rx=".18" ry=".18" transform="translate(-44.46 142.69) rotate(-45)"/>
    </g>
    <g>
      <path class="st41" d="M91.55,95.15c1.55,2.84,4.36,4.95,7.51,5.64,1.44.4,2.96.24,4.43.29-.43,1.55-1.17,2.99-1.6,4.53-.27,1.2,1.25,2.12,2.21,1.41,2.76-1.91,5.51-3.83,8.26-5.77.46-.34,1.08-.11,1.61-.2,3.83-.03,7.56-2.19,9.51-5.47,1.26-2.02,1.82-4.43,1.7-6.79.13-2.71-.73-5.46-2.4-7.6-2.06-2.7-5.36-4.38-8.76-4.46-4.09-.03-8.19,0-12.28-.01-1.75-.01-3.49.38-5.08,1.11-3.26,1.55-5.82,5-6.39,8.59-.07.66-.09,1.05-.09,1.57-.14,2.59.15,5,1.37,7.16Z"/>
      <g>
        <path class="st63" d="M164.15,80.46c-.31,5.66-3.92,11-9.02,13.5-2.43,1.25-5.2,1.78-7.93,1.75-1.97.02-3.95-.04-5.92.03,1.18,3.37,2.47,6.71,3.71,10.07-4.73-3.29-9.44-6.59-14.16-9.91-.14-.07-.27-.19-.43-.19-1.43-.07-2.87.1-4.29-.18.13-.63.49-1.17.64-1.8.74-2.11.68-4.37.61-6.56.14-.45-.16-.87-.18-1.31-.55-3.52-2.65-6.67-5.51-8.74h42.53c.02,1.11-.01,2.23-.06,3.33Z"/>
        <path class="st63" d="M116.44,65.38s0,0-.01-.02c0,0,.01,0,.02-.01.02-.01.03-.03.04-.04.03-.03.06-.06.08-.1.27-.14.47-.37.7-.56,3.01-2.68,7.06-4.07,11.07-4.04,6.69.01,13.36,0,20.04.01,1.77.13,3.56.39,5.22,1.08,2.55.89,4.76,2.56,6.59,4.52h0s.02,0,.02.01h0c1.31,1.63,2.5,3.55,3.15,5.56.62,1.72.83,3.53.87,5.35h-42.53c-1.79-1.29-3.88-2.17-6.09-2.44-1.24-.2-2.5-.07-3.74-.14.37-3.45,2.18-6.7,4.59-9.18Z"/>
      </g>
      <g>
        <path class="st35" d="M144.06,76.95c0,1.63,1.32,2.95,2.95,2.95s2.95-1.32,2.95-2.95-1.32-2.95-2.95-2.95-2.95,1.32-2.95,2.95Z"/>
        <path class="st35" d="M135.02,76.95c0,1.63,1.32,2.95,2.95,2.95s2.95-1.32,2.95-2.95-1.32-2.95-2.95-2.95-2.95,1.32-2.95,2.95Z"/>
        <path class="st35" d="M125.97,76.95c0,1.63,1.32,2.95,2.95,2.95s2.95-1.32,2.95-2.95-1.32-2.95-2.95-2.95-2.95,1.32-2.95,2.95Z"/>
      </g>
    </g>
  </g>
  <g>
    <path class="st1" d="M263.22,310.17c.61,3.44,4.16,4.14,7.08,4.6,1.88.3,3.77.53,5.67.68,1.19.09,3.62-.22,3.99,1.06.23.8,0,1.76.23,2.61.18.66.48,1.32.86,1.89.72,1.07,1.74,1.92,2.93,2.4,2.56,1.04,6.53.85,8.31-1.46,2.92-3.78,7.91-12.44,1.67-15.66-.5-.26-.99-.32-1.43-.25-.89-.45-1.85-.71-2.94-.81-1.5-.15-4.04.44-5.01-.98-.86-1.25-1.16-2.47-2.55-3.35-1.32-.83-2.92-1.11-4.45-.89-3.04.44-6.19,2.26-8.84,3.74-2.41,1.35-6.12,3.05-5.52,6.41Z"/>
    <g>
      <path class="st58" d="M278.09,300.63s2.86-.79,3.13,4.37c.03.68-.55.89-.55.89l-4.92,1.66s-3.16,1.95-5.02,2.45c-1.86.5-3.01-.09-3.34-.47-.41-2.53,2.87-3.23,4.08-4.14,1.21-.91,4.88-4.55,5.56-4.79s1.06.03,1.06.03Z"/>
      <path class="st78" d="M272.84,307.03c.97-.73,3.51-3.2,4.84-4.28.46.11.94.11,1.39-.01.39-.11.78-.24,1.08-.48.18.03.38.07.59.17.24.63.42,1.46.48,2.57.03.68-.55.89-.55.89l-4.92,1.66s-3.16,1.95-5.02,2.45c-.76.21-1.4.23-1.92.16.48-1.72,3-2.34,4.03-3.12Z"/>
      <path class="st58" d="M292.79,312.4c-.04.07-4.87,6.73-5.65,7.44-.78.72-3.04,1.62-3.57,0-.44-2.75,1.66-5.13,3.08-8,.72-1.45,1.06-2.24,2.07-3.26.96-.97,2.45-.97,3.65.24.73,1.6.41,3.58.41,3.58Z"/>
      <path class="st9" d="M286.74,320.15c.23-2.24,1.91-4.31,3.11-6.73.72-1.45,1.06-2.24,2.07-3.26.22-.22.47-.39.74-.51.35,1.38.13,2.75.13,2.75-.04.07-4.87,6.73-5.65,7.44-.11.1-.25.2-.4.3Z"/>
      <path class="st27" d="M288.41,305.9s.16,3.63.16,3.63c0,0,.13,1.01,1.64,1.01s1.51-1.01,1.51-1.01v-3.78l-3.31.14Z"/>
      <path class="st72" d="M276.44,297.79s.16,3.63.16,3.63c0,0,.13,1.01,1.64,1.01s1.51-1.01,1.51-1.01v-3.78l-3.31.14Z"/>
      <path class="st38" d="M276.38,252.35s-4.11,10.8-2.4,24.39c-.89,5.79,1.48,14.54,2.4,22.64.95.8,2.75.37,3.51.08.06-8.77,1.6-13.88-.17-21.66,1.24-2.13,5.84-18.38,5.84-18.38l-9.17-7.07Z"/>
      <path class="st79" d="M276.87,276.98c1.98-4.49,4.64-16.15,4.64-16.15v-.32s2.01-.5,4.01-.98c-.39,1.39-4.62,16.24-5.8,18.27,1.77,7.77.24,12.89.17,21.66-.41.15-1.13.35-1.85.37-.17-3.37-.71-14.14-1.17-22.85Z"/>
      <path class="st62" d="M260.46,239.01s6.56.43,9.48-1.38c1.69-1.05,5.45-10.51,9.68-10.06,4.23.45,1.76,4.83-.32,6.74-2.08,1.91-4.4,6.08-7.52,7.63-3.12,1.55-11.1.34-11.1.34l-.22-3.27Z"/>
      <path class="st28" d="M260.56,240.55c1.62.06,7.47.2,11.1-.79,3.49-.95,1.71-9.77,9.68-11.56.17.15.29.31.38.49-.07.73-.16,1.67-.26,2.67-.51,1.1-1.37,2.21-2.17,2.94-2.08,1.91-4.4,6.08-7.52,7.63-3.12,1.55-11.1.34-11.1.34l-.11-1.73Z"/>
      <path class="st86" d="M294.01,256.83c7.33-3.34-1.22-17.71-1.96-19.63-.72-1.89-1.31-3.83-1.74-5.81-.44-1.99-.73-4.01-1.12-6.01-.38-1.94-.91-3.87-1.76-5.67-.69-1.46-1.7-3.05-3.18-3.81-.65-.33-1.38-.49-2.11-.45-.04,0-.04.05,0,.06,0,0,0,0,0,0-.76.15-1.47.81-1.7,1.57-.28.95-.02,1.97.23,2.89.29,1.08.52,2.17.6,3.29.32,4.29-1.43,8.3-2.11,12.47-.86,5.24-.45,10.84,1.57,15.78,2.61,2.79,9.38,7.08,13.27,5.31Z"/>
      <path class="st54" d="M286.3,252.35s-4.81.61-5.45,3.16c-.64,2.55.34,15.78,3.53,25.62-.77,5.02,3.22,16.68,3.79,25.53,1.52.66,3.15.2,3.86-.08.28-8.56,3.19-15.89-1.2-24.32-.23-4.74,11.06-29.44-4.53-29.91Z"/>
      <path class="st29" d="M292.46,254.85c5.63,6.48-1.82,23.56-1.63,27.41,4.39,8.42,1.48,15.75,1.2,24.32-.4.16-1.1.38-1.92.41.08-3.47.07-13.31-1.93-26.79,1.48-12.84,0-24.5,0-24.5l4.28-.86Z"/>
      <path class="st58" d="M280.2,227.08s7.32-1.27,13.92,4.87c1.65,1.53-2.88,9.54-3.32,13.71-.44,4.17,1.76,8.91,1.27,9.62-.49.71-4.73,3.76-11.56,1.2-3.9-1.46-4.48-3.55-4.48-3.55l1.29-10.24s-3.94-1.75-2.83-4.83c1.11-3.08,1.35-3.55,1.68-6.97.33-3.42,4.03-3.81,4.03-3.81Z"/>
      <path class="st51" d="M280.24,230.76c-.7,2.07.29,4,2.21,4.32,1.92.32,4.05-1.1,4.75-3.16.7-2.07-.29-4-2.21-4.32-1.92-.32-4.05,1.1-4.75,3.16Z"/>
      <path class="st26" d="M289.4,236.5s-.79.95-.96,2.09c-.17,1.13-.27,4.03-1.72,4.78-1.75.91-4.16-.1-6.22-.35,3.69,2.07,6.66,9.7,8.9,9.31,1.52-.26,1.17-11.03,1.17-11.03l-1.17-4.81Z"/>
      <path class="st71" d="M257.26,239.42c-.12-.91-1.05-1.77-.86-2.53.19-.76.92-.12,1.03.18.11.3.49,2.04.49,2.04,0,0-.54,1.22-.65.31Z"/>
      <g>
        <path class="st70" d="M272.04,241.69l1.27-.36c.18-.05.37,0,.51.13l.9.86s-.68.65-.7.7c-.03.04-1.61-.72-1.61-.72l-.37-.61Z"/>
        <path class="st51" d="M268.27,240.74c.38-.8,4.68,1.24,6.38,1.53.95.72,2.95,2.68,2.95,2.68l1.6,1.15-1.73,1.88-1.46-1.22s-2.07-.21-2.42-.33-2.02-1-2.24-1.22c-.22-.22-.32-.66.13-.69-.46-.09-.66-.84.09-.84-.58-.19-.49-.94.22-.86-.84-.55-3.9-1.29-3.52-2.08Z"/>
        <path class="st62" d="M276.38,247.31l1.96-2.31s8.56,7.78,9.85,6.77c1.22-.96.26-13.23.83-16.17.35-1.83,1.51-4.28,3.59-4.28,2.24,0,3.01,3.04,2.96,6.92-.05,3.88-.46,17.89-4.82,19.38-5.24,1.79-14.36-10.31-14.36-10.31Z"/>
      </g>
      <path class="st73" d="M282.08,229.57s.53,1.04,2.35.65c1.89-.4,1.76-1.27,1.76-1.27l-1.88-6.25-4.3,1.41,2.06,5.46Z"/>
      <path class="st82" d="M289.74,228.77s-.05-.04-.07-.05c0,0,0-.02,0-.03-.75-.62-1.59-1.13-2.28-1.81-.64-.63-1.07-1.4-1.67-2.06-.58-.64-1.32-1.03-2.24-1.19-.59-.1-1.4.22-1.4.83,0,.03.01.06.04.08.06.66.24,1.32.58,1.9.36.62.92.97,1.65,1.17.86.24,1.75.23,2.63.38.97.17,1.8.57,2.72.85.05.02.09-.05.05-.08Z"/>
      <path class="st51" d="M281.3,222.57s1.07,3.46,1.07,3.87c0,.83-1.01,2.13-2.77,3.28-.96.62-1.44.13-1.44.13,0,0-1.33-.81-2.11-2.65-.18-.43-.3-1.25-.44-1.71-.22-.72-1.01-1.53-1.09-2.25-.38-3.16,4.52-4.37,5.47-3.16.95,1.21,1.32,2.48,1.32,2.48Z"/>
      <path class="st31" d="M278.97,219.64c.45.05.82.19,1.01.44.95,1.21,1.32,2.48,1.32,2.48,0,0,1.07,3.46,1.07,3.87,0,.71-1.03,2.25-3.06,3.44-.89.39-.31-1.77-.89-3.13-.18-.43-.3-1.25-.44-1.71-.22-.72-1.01-1.53-1.09-2.25-.18-1.52.85-2.58,2.08-3.15Z"/>
      <path class="st83" d="M274.62,223.65c-.45-1.59,2.14.47,3.53-.92.28.57,1.36,1.94,3.15,1.63.19.39,1.42-.48,1.53.07.31,1.68,2.77,1.98,2.72.08-.07-2.59,1.56-3.43.64-6.41-.62-2.01-4.18-5.56-7.31-3.55-2.31-.98-3.81,1.88-4.87,3.4-.85,1.23-1.04,4.14.61,5.69Z"/>
      <path class="st51" d="M281.65,223.42c1.03-.35,1.3,3,.53,2.84-1.09-.24-1.55-2.49-.53-2.84Z"/>
      <path class="st53" d="M267.84,249.44l-3.85-14c-.04-.14-.13-.27-.26-.35l-8.3-5.2c-.06-.04-.12-.03-.16,0h0s0,0,0,0h0s-.41.28-.41.28l.49.25,4.66,14.11c.05.16.16.29.29.38l6.94,4.55c.03.1.11.47.11.47.01,0,.28-.19.39-.27.02,0,.03-.02.05-.03h0c.06-.05.09-.13.06-.21Z"/>
      <path class="st18" d="M254.79,230.36l4.78,14.48c.05.16.16.29.29.38l7.23,4.74c.16.11.37-.05.32-.23l-3.85-14c-.04-.14-.13-.27-.26-.35l-8.3-5.2c-.12-.07-.26.04-.22.17Z"/>
      <path class="st56" d="M264.15,236.94h0c-.06.02-.13-.02-.15-.08l-.18-.65c-.02-.06.02-.13.08-.15h0c.06-.02.13.02.15.08l.18.65c.02.06-.02.13-.08.15Z"/>
      <g>
        <path class="st56" d="M262.52,234.48s-.05-.08-.11-.08c-.06,0-.11.03-.11.08,0,.04.05.08.11.08.06,0,.11-.03.11-.08Z"/>
        <path class="st56" d="M262.22,234.31s-.05-.08-.11-.08c-.06,0-.11.03-.11.08,0,.04.05.08.11.08.06,0,.11-.03.11-.08Z"/>
        <path class="st56" d="M261.92,234.13s-.05-.08-.11-.08c-.06,0-.11.03-.11.08,0,.04.05.08.11.08.06,0,.11-.03.11-.08Z"/>
        <path class="st56" d="M261.63,233.96s-.05-.08-.11-.08c-.06,0-.11.03-.11.08,0,.04.05.08.11.08.06,0,.11-.03.11-.08Z"/>
        <path class="st56" d="M261.33,233.79s-.05-.08-.11-.08c-.06,0-.11.03-.11.08,0,.04.05.08.11.08.06,0,.11-.03.11-.08Z"/>
        <g>
          <path class="st56" d="M257.27,231.24s-.05-.08-.11-.08c-.06,0-.11.03-.11.08,0,.04.05.08.11.08.06,0,.11-.03.11-.08Z"/>
          <path class="st56" d="M256.97,231.07s-.05-.08-.11-.08c-.06,0-.11.03-.11.08,0,.04.05.08.11.08.06,0,.11-.03.11-.08Z"/>
          <path class="st56" d="M256.67,230.9s-.05-.08-.11-.08c-.06,0-.11.03-.11.08,0,.04.05.08.11.08.06,0,.11-.03.11-.08Z"/>
          <path class="st56" d="M256.37,230.72s-.05-.08-.11-.08c-.06,0-.11.03-.11.08s.05.08.11.08.11-.03.11-.08Z"/>
          <path class="st56" d="M256.08,230.55s-.05-.08-.11-.08c-.06,0-.11.03-.11.08,0,.04.05.08.11.08.06,0,.11-.03.11-.08Z"/>
        </g>
      </g>
      <path class="st53" d="M261.74,238.9c.27.74-.02,1.18-.64.98-.62-.2-1.34-.96-1.61-1.7-.27-.74.02-1.18.64-.98.62.2,1.34.96,1.61,1.7Z"/>
      <path class="st51" d="M258.79,242.27s-.03-.09.02-.07c.91.29,3.22.29,3.22-.11s-2.48-.48-3.53-.88c-.05-.02-.03-.09.02-.07,1.04.4,3.4.42,3.35.09-.05-.34-1.99-.41-3.67-1.08-.04-.02-.03-.09.02-.07.64.26,3.2.79,3.25.41.06-.38-1.83-.83-2.38-1.11-.43-.22-.85-.44-1.29-.64-.21-.07-.39-.11-.56-.13-.52-.06-.71.58-.19,1.14-.56.57.27,1.37.27,1.37,0,0-.44.56.51,1.19-.22.19-.01.71.62.97.59.24,2.76-.05,2.76-.3s-1.51-.41-2.41-.7Z"/>
    </g>
    <path class="st30" d="M289.19,254.46c-3.03,0-8.52-5.16-11.72-8.45l.86-1.02s8.56,7.78,9.85,6.77c1.22-.96.26-13.23.83-16.17.34-1.76,1.43-4.09,3.36-4.27.16,3.47.87,23.12-3.18,23.12Z"/>
  </g>
  <g class="st2">
    <path class="st0" d="M324.52,321.82l18.01-10.09c1.36-.77,1.43-2.71.13-3.58l-11.12-7.23c-1.86-1.24-4.27-1.31-6.21-.18l-18.67,10.83c-1.42.82-1.38,2.89.07,3.67l12.13,6.65c1.77.95,3.91.92,5.66-.08Z"/>
    <g>
      <g>
        <polygon class="st53" points="313.94 277.98 313.11 278.41 309.07 312.61 309.09 313.74 309.91 313.31 314.77 278.44 313.94 277.98"/>
        <polygon class="st45" points="313.11 278.41 308.25 313.04 309.09 313.74 313.94 278.86 313.11 278.41"/>
      </g>
      <g>
        <polygon class="st53" points="334.67 261.8 340 290.94 339.22 291.36 320.88 280.07 314.91 251.47 315.53 251.05 334.67 261.8"/>
        <polygon class="st25" points="333.94 262.22 339.28 291.36 320.15 280.49 314.8 251.47 333.94 262.22"/>
      </g>
      <g>
        <g>
          <polygon class="st53" points="332.26 262.84 340.96 309.99 340.18 310.41 330.79 262.98 331.51 262.57 332.26 262.84"/>
          <polygon class="st25" points="331.53 263.26 340.24 310.41 339.51 310.01 330.79 262.98 331.53 263.26"/>
        </g>
        <g>
          <polygon class="st53" points="319.99 255.14 328.69 302.29 327.9 302.7 318.52 255.28 319.24 254.86 319.99 255.14"/>
          <polygon class="st25" points="319.26 255.55 327.97 302.7 327.24 302.31 318.52 255.28 319.26 255.55"/>
        </g>
      </g>
      <polygon class="st53" points="314.8 251.47 313.98 251.9 309.93 286.1 328.26 297.53 329.09 297.1 333.94 262.22 314.8 251.47"/>
      <g>
        <polygon class="st53" points="326.63 285.2 325.8 285.63 321.76 319.83 321.77 320.96 322.6 320.53 327.46 285.65 326.63 285.2"/>
        <polygon class="st45" points="325.8 285.63 320.93 320.26 321.77 320.96 326.63 286.08 325.8 285.63"/>
      </g>
      <polygon class="st45" points="313.98 251.9 309.11 286.53 328.26 297.53 333.12 262.65 313.98 251.9"/>
    </g>
  </g>
  <g>
    <polygon class="st18" points="308.52 251.07 339.56 268.29 335.96 298.57 334.95 299.06 334.84 297.93 304.97 280.9 308.24 253.37 307.51 251.56 308.52 251.07"/>
    <polygon class="st23" points="338.55 268.78 307.51 251.56 303.96 281.39 334.95 299.06 338.55 268.78"/>
    <g>
      <path class="st46" d="M315.16,267.1c-.26-.36-.56-.65-.89-.83-.54-.31-1.08-.3-1.56-.03l-1.25-4.94c1.03-.57,2.21-.58,3.39.09.79.45,1.51,1.17,2.13,2.07l-1.82,3.64Z"/>
      <path class="st48" d="M316.32,271.88c.13-1.6-.23-3.25-.9-4.39l1.82-3.63c1.54,2.48,2.4,6.17,2.14,9.77l-3.05-1.74Z"/>
      <path class="st55" d="M311.18,261.48l1.26,4.96c-.57.48-1.01,1.37-1.2,2.54l-3.05-1.74c.46-2.78,1.58-4.81,2.99-5.76Z"/>
      <path class="st61" d="M314.95,275.05c.62-.45,1.11-1.38,1.3-2.63l3.07,1.75c0,.06,0,.13-.02.19-.36,3.02-1.47,5.27-2.92,6.36l-1.44-5.67Z"/>
      <path class="st43" d="M311.03,269.44c-.12,1.46.17,2.96.73,4.08l-2.12,4.23c-1.41-2.64-2.13-6.34-1.71-9.88,0-.06.02-.12.03-.19l3.07,1.75Z"/>
      <path class="st37" d="M312.14,274.02c.31.49.67.88,1.08,1.11.5.29.99.3,1.44.09l1.44,5.69c-1.08.67-2.32.74-3.57.02-.96-.55-1.81-1.48-2.51-2.67l2.13-4.24Z"/>
    </g>
    <g>
      <path class="st37" d="M330.89,271.62l-1.82,3.63c-.24-.4-.52-.73-.82-.97l.67-4.82c.73.52,1.4,1.26,1.97,2.17Z"/>
      <path class="st43" d="M329.69,276.71c-.11-.36-.24-.71-.39-1.03l1.83-3.66c.53.94.98,2.02,1.3,3.19l-2.75,1.49Z"/>
      <path class="st48" d="M328.53,269.2s.05.04.08.05l-.67,4.82c-1.4-.79-2.77.54-3.06,2.99-.29,2.45.61,5.09,2.02,5.89,1.41.8,2.78-.53,3.07-2.98.11-.91.05-1.85-.14-2.71l2.74-1.49c.49,2.01.67,4.25.41,6.41-.64,5.4-3.68,8.34-6.78,6.57-3.1-1.77-5.1-7.58-4.45-12.98.64-5.4,3.68-8.34,6.78-6.57Z"/>
    </g>
  </g>
</svg>